<svg width="34" height="34" viewBox="0 0 34 34" fill="none" xmlns="http://www.w3.org/2000/svg">
<rect width="34" height="34" rx="17" fill="white"/>
<path d="M11.1735 20.2363L13.1304 19.442C12.9662 18.9486 12.8196 18.461 12.6907 17.9793C12.5617 17.4976 12.4504 16.9983 12.3567 16.4813L11.1752 17.2752L11.1735 20.2363ZM15.14 19.1941L19.1411 19.1741C19.447 18.4923 19.6884 17.6755 19.8652 16.7236C20.042 15.7717 20.1307 14.8022 20.1313 13.8152C20.1323 12.1701 19.8629 10.6133 19.3233 9.14477C18.7836 7.67626 18.0616 6.54862 17.1573 5.76186C16.252 6.5497 15.5257 7.68113 14.9785 9.15616C14.4312 10.6312 14.1571 12.1913 14.1561 13.8363C14.1555 14.8234 14.243 15.7928 14.4187 16.7445C14.5944 17.6962 14.8348 18.5127 15.14 19.1941ZM17.1342 14.9098C16.5937 14.9101 16.1267 14.7135 15.7333 14.3201C15.3399 13.9267 15.1434 13.4597 15.1437 12.9192C15.144 12.3787 15.344 11.9085 15.7438 11.5088C16.1436 11.109 16.6137 10.909 17.1542 10.9087C17.6948 10.9083 18.1617 11.1049 18.5551 11.4983C18.9486 11.8917 19.1451 12.3587 19.1448 12.8992C19.1445 13.4397 18.9444 13.9099 18.5447 14.3096C18.1449 14.7094 17.6748 14.9094 17.1342 14.9098ZM23.1239 20.2292L23.1257 17.2681L21.9452 16.4756C21.8509 16.9927 21.736 17.4892 21.6006 17.9652C21.4652 18.4412 21.3151 18.926 21.1503 19.4196L23.1239 20.2292ZM17.1412 3.20611C18.7856 4.4037 20.0302 5.92467 20.8752 7.76902C21.7201 9.61337 22.1419 11.7576 22.1404 14.2017L24.2371 15.593C24.519 15.7808 24.7362 16.0216 24.8888 16.3152C25.0414 16.6089 25.1176 16.9203 25.1174 17.2493L25.1139 23.1716L20.1622 21.1828L14.1341 21.1864L9.18 23.1811L9.16588 17.2764C9.16608 16.9474 9.24558 16.633 9.4044 16.3332C9.56321 16.0335 9.78368 15.7895 10.0658 15.6014L12.1641 14.2077C12.1656 11.7635 12.584 9.61879 13.4194 7.77344C14.2548 5.9281 15.4954 4.40565 17.1412 3.20611ZM14.1491 25.6458C14.1496 24.8232 14.4437 24.1121 15.0316 23.5125C15.6195 22.9129 16.3247 22.6128 17.1473 22.6123C17.9698 22.6118 18.6747 22.911 19.2619 23.51C19.849 24.1089 20.1424 24.8196 20.1419 25.6422C20.1416 26.2297 19.9032 26.9731 19.4267 27.8723C18.9503 28.7715 18.1888 29.9088 17.1421 31.2843C16.0971 29.9101 15.337 28.7737 14.8616 27.875C14.3862 26.9764 14.1487 26.2333 14.1491 25.6458ZM16.1408 25.6269C16.1407 25.862 16.2374 26.1939 16.4311 26.6226C16.6247 27.0514 16.8565 27.4479 17.1266 27.812C17.3971 27.4475 17.6323 27.0538 17.8323 26.6306C18.0323 26.2075 18.1324 25.8784 18.1325 25.6434C18.1327 25.3614 18.0388 25.1147 17.851 24.9033C17.6631 24.6919 17.4281 24.5862 17.1461 24.5864C16.8641 24.5866 16.6261 24.6895 16.4321 24.8953C16.2381 25.101 16.141 25.3449 16.1408 25.6269Z" fill="black"/>
</svg>
