<svg width="214" height="48" viewBox="0 0 214 48" fill="none" xmlns="http://www.w3.org/2000/svg">
<path d="M56.6687 19.3843C56.5721 18.4103 56.1576 17.6537 55.4251 17.1144C54.6926 16.5751 53.6985 16.3054 52.4428 16.3054C51.5896 16.3054 50.8692 16.4262 50.2816 16.6676C49.694 16.9011 49.2433 17.2271 48.9293 17.6456C48.6235 18.0642 48.4705 18.5391 48.4705 19.0703C48.4544 19.5131 48.547 19.8994 48.7482 20.2294C48.9575 20.5595 49.2433 20.8452 49.6055 21.0867C49.9677 21.3201 50.3862 21.5254 50.8612 21.7024C51.3361 21.8715 51.8432 22.0164 52.3825 22.1371L54.604 22.6684C55.6826 22.9098 56.6727 23.2318 57.5742 23.6343C58.4757 24.0367 59.2565 24.5318 59.9165 25.1193C60.5766 25.7069 61.0877 26.3992 61.4499 27.1961C61.8202 27.9929 62.0094 28.9065 62.0174 29.9368C62.0094 31.4501 61.623 32.7621 60.8583 33.8729C60.1017 34.9756 59.007 35.8329 57.5742 36.4446C56.1495 37.0483 54.431 37.3502 52.4187 37.3502C50.4225 37.3502 48.6838 37.0443 47.2028 36.4326C45.7298 35.8208 44.5787 34.9153 43.7496 33.7159C42.9286 32.5086 42.498 31.0154 42.4577 29.2365H47.5167C47.573 30.0656 47.8105 30.7578 48.229 31.3132C48.6557 31.8606 49.2231 32.2751 49.9315 32.5568C50.6478 32.8305 51.4568 32.9674 52.3583 32.9674C53.2437 32.9674 54.0124 32.8386 54.6644 32.581C55.3245 32.3234 55.8356 31.9652 56.1978 31.5064C56.56 31.0476 56.7411 30.5204 56.7411 29.9247C56.7411 29.3693 56.5761 28.9025 56.2461 28.5242C55.9241 28.1459 55.4492 27.8239 54.8214 27.5583C54.2016 27.2926 53.4409 27.0512 52.5394 26.8338L49.8469 26.1577C47.7622 25.6506 46.1161 24.8577 44.9087 23.7791C43.7013 22.7006 43.1017 21.2477 43.1097 19.4205C43.1017 17.9233 43.5001 16.6153 44.305 15.4965C45.118 14.3776 46.2328 13.5043 47.6495 12.8765C49.0662 12.2486 50.676 11.9347 52.479 11.9347C54.3143 11.9347 55.9161 12.2486 57.2844 12.8765C58.6609 13.5043 59.7314 14.3776 60.4961 15.4965C61.2608 16.6153 61.6552 17.9113 61.6793 19.3843H56.6687ZM70.5808 26.2784V37H65.4373V12.2728H70.4359V21.7266H70.6532C71.0718 20.6319 71.7479 19.7747 72.6816 19.1549C73.6154 18.527 74.7865 18.2131 76.1951 18.2131C77.483 18.2131 78.6059 18.4948 79.5637 19.0583C80.5297 19.6137 81.2782 20.4146 81.8095 21.461C82.3488 22.4993 82.6144 23.7429 82.6064 25.1918V37H77.4629V26.1094C77.4709 24.9664 77.1812 24.077 76.5936 23.4411C76.014 22.8052 75.2011 22.4872 74.1547 22.4872C73.4544 22.4872 72.8346 22.6362 72.2953 22.934C71.764 23.2318 71.3455 23.6665 71.0396 24.238C70.7418 24.8014 70.5888 25.4816 70.5808 26.2784ZM95.0334 37.3622C93.1579 37.3622 91.536 36.9638 90.1676 36.1669C88.8073 35.362 87.7569 34.2432 87.0163 32.8104C86.2758 31.3696 85.9055 29.6994 85.9055 27.7997C85.9055 25.884 86.2758 24.2098 87.0163 22.777C87.7569 21.3362 88.8073 20.2174 90.1676 19.4205C91.536 18.6156 93.1579 18.2131 95.0334 18.2131C96.9089 18.2131 98.5268 18.6156 99.8871 19.4205C101.255 20.2174 102.31 21.3362 103.05 22.777C103.791 24.2098 104.161 25.884 104.161 27.7997C104.161 29.6994 103.791 31.3696 103.05 32.8104C102.31 34.2432 101.255 35.362 99.8871 36.1669C98.5268 36.9638 96.9089 37.3622 95.0334 37.3622ZM95.0575 33.3779C95.9107 33.3779 96.6231 33.1364 97.1946 32.6534C97.7661 32.1624 98.1967 31.4943 98.4865 30.6492C98.7843 29.804 98.9332 28.8421 98.9332 27.7635C98.9332 26.6849 98.7843 25.723 98.4865 24.8779C98.1967 24.0327 97.7661 23.3646 97.1946 22.8736C96.6231 22.3826 95.9107 22.1371 95.0575 22.1371C94.1963 22.1371 93.4718 22.3826 92.8842 22.8736C92.3047 23.3646 91.866 24.0327 91.5682 24.8779C91.2784 25.723 91.1335 26.6849 91.1335 27.7635C91.1335 28.8421 91.2784 29.804 91.5682 30.6492C91.866 31.4943 92.3047 32.1624 92.8842 32.6534C93.4718 33.1364 94.1963 33.3779 95.0575 33.3779ZM110.699 37L105.652 18.4546H110.856L113.73 30.9148H113.899L116.893 18.4546H122L125.043 30.8424H125.2L128.025 18.4546H133.217L128.182 37H122.737L119.549 25.3367H119.32L116.132 37H110.699ZM142.33 37.3019C140.921 37.3019 139.645 36.9397 138.502 36.2152C137.367 35.4827 136.466 34.4082 135.798 32.9915C135.138 31.5668 134.808 29.8201 134.808 27.7515C134.808 25.6265 135.15 23.8596 135.834 22.451C136.518 21.0344 137.428 19.9759 138.563 19.2756C139.706 18.5673 140.957 18.2131 142.318 18.2131C143.356 18.2131 144.221 18.3902 144.914 18.7443C145.614 19.0905 146.177 19.5251 146.604 20.0483C147.039 20.5635 147.369 21.0706 147.594 21.5696H147.751V12.2728H152.882V37H147.811V34.0299H147.594C147.352 34.545 147.01 35.0561 146.568 35.5632C146.133 36.0623 145.566 36.4768 144.865 36.8068C144.173 37.1369 143.328 37.3019 142.33 37.3019ZM143.96 33.2088C144.789 33.2088 145.489 32.9835 146.061 32.5327C146.64 32.0739 147.083 31.434 147.389 30.613C147.703 29.7919 147.86 28.83 147.86 27.7273C147.86 26.6246 147.707 25.6667 147.401 24.8537C147.095 24.0407 146.652 23.4129 146.073 22.9702C145.493 22.5275 144.789 22.3061 143.96 22.3061C143.115 22.3061 142.402 22.5355 141.823 22.9943C141.243 23.4532 140.804 24.089 140.507 24.902C140.209 25.715 140.06 26.6568 140.06 27.7273C140.06 28.8059 140.209 29.7597 140.507 30.5888C140.812 31.4098 141.251 32.0538 141.823 32.5206C142.402 32.9794 143.115 33.2088 143.96 33.2088ZM165.563 37.3622C163.655 37.3622 162.013 36.9759 160.637 36.2032C159.268 35.4224 158.214 34.3196 157.473 32.8949C156.733 31.4622 156.363 29.7678 156.363 27.8118C156.363 25.9041 156.733 24.2299 157.473 22.7891C158.214 21.3483 159.256 20.2254 160.6 19.4205C161.953 18.6156 163.538 18.2131 165.358 18.2131C166.581 18.2131 167.72 18.4103 168.775 18.8047C169.837 19.1911 170.763 19.7747 171.551 20.5554C172.348 21.3362 172.968 22.3182 173.411 23.5015C173.854 24.6766 174.075 26.0531 174.075 27.6307V29.0434H158.415V25.8559H169.233C169.233 25.1153 169.072 24.4593 168.75 23.8878C168.428 23.3163 167.982 22.8696 167.41 22.5476C166.847 22.2176 166.191 22.0526 165.442 22.0526C164.661 22.0526 163.969 22.2337 163.365 22.5959C162.77 22.9501 162.303 23.429 161.965 24.0327C161.627 24.6283 161.454 25.2924 161.446 26.0249V29.0554C161.446 29.973 161.615 30.7659 161.953 31.434C162.299 32.1021 162.786 32.6172 163.414 32.9794C164.042 33.3416 164.786 33.5228 165.647 33.5228C166.219 33.5228 166.742 33.4423 167.217 33.2813C167.692 33.1203 168.098 32.8788 168.436 32.5568C168.775 32.2349 169.032 31.8405 169.209 31.3736L173.966 31.6875C173.725 32.8305 173.23 33.8286 172.481 34.6818C171.741 35.527 170.783 36.1871 169.608 36.662C168.44 37.1288 167.092 37.3622 165.563 37.3622ZM194.223 18.4546L187.74 37H181.944L175.46 18.4546H180.894L184.745 31.7238H184.938L188.778 18.4546H194.223ZM212.286 23.7429L207.577 24.0327C207.496 23.6302 207.323 23.268 207.058 22.9461C206.792 22.616 206.442 22.3544 206.007 22.1613C205.581 21.96 205.07 21.8594 204.474 21.8594C203.677 21.8594 203.005 22.0284 202.458 22.3665C201.91 22.6965 201.637 23.1392 201.637 23.6946C201.637 24.1373 201.814 24.5116 202.168 24.8175C202.522 25.1234 203.13 25.3689 203.991 25.554L207.347 26.2301C209.151 26.6004 210.495 27.1961 211.38 28.0171C212.266 28.8381 212.708 29.9167 212.708 31.2529C212.708 32.4683 212.35 33.5348 211.634 34.4524C210.925 35.3701 209.951 36.0864 208.712 36.6016C207.48 37.1087 206.06 37.3622 204.45 37.3622C201.995 37.3622 200.039 36.8511 198.582 35.8289C197.133 34.7986 196.284 33.398 196.034 31.6272L201.093 31.3615C201.246 32.1101 201.616 32.6816 202.204 33.076C202.792 33.4624 203.544 33.6556 204.462 33.6556C205.363 33.6556 206.088 33.4825 206.635 33.1364C207.191 32.7822 207.472 32.3274 207.48 31.772C207.472 31.3052 207.275 30.9229 206.889 30.625C206.502 30.3192 205.907 30.0857 205.102 29.9247L201.89 29.2848C200.079 28.9226 198.731 28.2948 197.845 27.4013C196.968 26.5078 196.529 25.3689 196.529 23.9844C196.529 22.7931 196.851 21.7668 197.495 20.9056C198.147 20.0443 199.061 19.3802 200.236 18.9134C201.419 18.4465 202.804 18.2131 204.389 18.2131C206.732 18.2131 208.575 18.7081 209.919 19.6982C211.271 20.6882 212.06 22.0365 212.286 23.7429Z" fill="white"/>
<path d="M14.1943 28.7284L17.456 27.4044C17.1823 26.582 16.938 25.7694 16.723 24.9665C16.5081 24.1636 16.3225 23.3314 16.1664 22.4697L14.1973 23.7929L14.1943 28.7284ZM20.8054 26.9911L27.4741 26.9578C27.984 25.8216 28.3863 24.4602 28.6811 22.8736C28.9758 21.287 29.1236 19.6711 29.1246 18.026C29.1262 15.284 28.6773 12.6893 27.7779 10.2417C26.8784 7.79403 25.675 5.91457 24.1677 4.60325C22.6589 5.91636 21.4484 7.80215 20.5362 10.2606C19.624 12.7191 19.1671 15.3193 19.1655 18.0613C19.1645 19.7064 19.3105 21.3221 19.6033 22.9083C19.8961 24.4946 20.2968 25.8555 20.8054 26.9911ZM24.1293 19.8504C23.2284 19.8509 22.4501 19.5233 21.7943 18.8676C21.1386 18.2119 20.811 17.4336 20.8116 16.5326C20.8121 15.6317 21.1455 14.8481 21.8118 14.1818C22.4781 13.5155 23.2617 13.1821 24.1626 13.1816C25.0636 13.181 25.8419 13.5086 26.4976 14.1643C27.1533 14.8201 27.4809 15.5984 27.4804 16.4993C27.4798 17.4002 27.1464 18.1838 26.4801 18.8501C25.8138 19.5164 25.0302 19.8498 24.1293 19.8504ZM34.1125 28.7165L34.1154 23.7811L32.1479 22.4602C31.9907 23.3221 31.7993 24.1497 31.5735 24.943C31.3478 25.7363 31.0977 26.5444 30.823 27.3671L34.1125 28.7165ZM24.1409 0.343485C26.8816 2.33955 28.9561 4.8746 30.3645 7.94865C31.7728 11.0227 32.4757 14.5966 32.4733 18.6703L35.9679 20.9891C36.4377 21.3022 36.7998 21.7034 37.0541 22.1929C37.3085 22.6824 37.4355 23.2013 37.4351 23.7497L37.4293 33.6207L29.1761 30.3059L19.1289 30.3118L10.8717 33.6364L10.8482 23.7949C10.8485 23.2465 10.981 22.7225 11.2457 22.2229C11.5104 21.7233 11.8779 21.3167 12.3481 21.0031L15.8454 18.6802C15.8479 14.6064 16.5453 11.0317 17.9376 7.95602C19.33 4.88032 21.3978 2.34281 24.1409 0.343485ZM19.1538 37.7444C19.1546 36.3734 19.645 35.1882 20.6248 34.1888C21.6047 33.1894 22.7801 32.6893 24.1511 32.6885C25.522 32.6876 26.6968 33.1864 27.6755 34.1846C28.6542 35.1829 29.1431 36.3675 29.1423 37.7385C29.1417 38.7177 28.7444 39.9567 27.9503 41.4555C27.1562 42.9542 25.8869 44.8498 24.1425 47.1423C22.4007 44.8519 21.1337 42.9578 20.3414 41.46C19.5491 39.9622 19.1532 38.7237 19.1538 37.7444ZM22.4735 37.7131C22.4733 38.1048 22.6346 38.658 22.9573 39.3726C23.28 40.0873 23.6664 40.7481 24.1165 41.3549C24.5673 40.7475 24.9594 40.0912 25.2928 39.3859C25.6262 38.6807 25.793 38.1322 25.7932 37.7405C25.7935 37.2704 25.6371 36.8592 25.3239 36.5069C25.0107 36.1545 24.6191 35.9785 24.1491 35.9788C23.6791 35.9791 23.2824 36.1507 22.959 36.4936C22.6356 36.8365 22.4738 37.243 22.4735 37.7131Z" fill="#00DB1D"/>
</svg>
