<svg width="1240" height="372" viewBox="0 0 1240 372" fill="none" xmlns="http://www.w3.org/2000/svg">
<rect width="1240" height="372" fill="#0D1117"/>
<path d="M108.097 59.3842C108.001 58.4103 107.586 57.6536 106.854 57.1143C106.121 56.575 105.127 56.3054 103.872 56.3054C103.018 56.3054 102.298 56.4261 101.71 56.6676C101.123 56.901 100.672 57.227 100.358 57.6456C100.052 58.0642 99.8992 58.5391 99.8992 59.0703C99.8831 59.513 99.9757 59.8994 100.177 60.2294C100.386 60.5594 100.672 60.8452 101.034 61.0866C101.396 61.3201 101.815 61.5253 102.29 61.7024C102.765 61.8714 103.272 62.0163 103.811 62.1371L106.033 62.6683C107.111 62.9098 108.101 63.2318 109.003 63.6342C109.904 64.0367 110.685 64.5317 111.345 65.1193C112.005 65.7069 112.516 66.3991 112.879 67.196C113.249 67.9929 113.438 68.9065 113.446 69.9368C113.438 71.45 113.052 72.7621 112.287 73.8729C111.53 74.9756 110.436 75.8329 109.003 76.4446C107.578 77.0483 105.86 77.3501 103.847 77.3501C101.851 77.3501 100.113 77.0443 98.6315 76.4325C97.1585 75.8208 96.0074 74.9152 95.1784 73.7159C94.3573 72.5085 93.9267 71.0154 93.8865 69.2365H98.9454C99.0017 70.0656 99.2392 70.7578 99.6578 71.3132C100.084 71.8606 100.652 72.2751 101.36 72.5568C102.077 72.8305 102.886 72.9673 103.787 72.9673C104.672 72.9673 105.441 72.8385 106.093 72.581C106.753 72.3234 107.264 71.9652 107.627 71.5064C107.989 71.0476 108.17 70.5204 108.17 69.9247C108.17 69.3693 108.005 68.9025 107.675 68.5241C107.353 68.1458 106.878 67.8239 106.25 67.5582C105.63 67.2926 104.87 67.0511 103.968 66.8338L101.276 66.1577C99.1909 65.6506 97.5448 64.8577 96.3374 63.7791C95.1301 62.7005 94.5304 61.2476 94.5384 59.4205C94.5304 57.9233 94.9288 56.6153 95.7338 55.4964C96.5467 54.3776 97.6615 53.5043 99.0782 52.8764C100.495 52.2486 102.105 51.9347 103.908 51.9347C105.743 51.9347 107.345 52.2486 108.713 52.8764C110.09 53.5043 111.16 54.3776 111.925 55.4964C112.689 56.6153 113.084 57.9112 113.108 59.3842H108.097ZM122.009 66.2784V77H116.866V52.2727H121.865V61.7266H122.082C122.501 60.6319 123.177 59.7746 124.11 59.1548C125.044 58.527 126.215 58.2131 127.624 58.2131C128.912 58.2131 130.035 58.4948 130.992 59.0582C131.958 59.6136 132.707 60.4145 133.238 61.4609C133.777 62.4993 134.043 63.7429 134.035 65.1918V77H128.892V66.1094C128.9 64.9664 128.61 64.0769 128.022 63.4411C127.443 62.8052 126.63 62.4872 125.583 62.4872C124.883 62.4872 124.263 62.6361 123.724 62.9339C123.193 63.2318 122.774 63.6664 122.468 64.2379C122.17 64.8014 122.018 65.4815 122.009 66.2784ZM146.462 77.3622C144.587 77.3622 142.965 76.9638 141.596 76.1669C140.236 75.362 139.186 74.2431 138.445 72.8104C137.705 71.3696 137.334 69.6993 137.334 67.7997C137.334 65.884 137.705 64.2098 138.445 62.777C139.186 61.3362 140.236 60.2173 141.596 59.4205C142.965 58.6155 144.587 58.2131 146.462 58.2131C148.338 58.2131 149.955 58.6155 151.316 59.4205C152.684 60.2173 153.739 61.3362 154.479 62.777C155.22 64.2098 155.59 65.884 155.59 67.7997C155.59 69.6993 155.22 71.3696 154.479 72.8104C153.739 74.2431 152.684 75.362 151.316 76.1669C149.955 76.9638 148.338 77.3622 146.462 77.3622ZM146.486 73.3778C147.339 73.3778 148.052 73.1364 148.623 72.6534C149.195 72.1624 149.625 71.4943 149.915 70.6491C150.213 69.804 150.362 68.8421 150.362 67.7635C150.362 66.6849 150.213 65.723 149.915 64.8778C149.625 64.0327 149.195 63.3646 148.623 62.8736C148.052 62.3826 147.339 62.1371 146.486 62.1371C145.625 62.1371 144.901 62.3826 144.313 62.8736C143.733 63.3646 143.295 64.0327 142.997 64.8778C142.707 65.723 142.562 66.6849 142.562 67.7635C142.562 68.8421 142.707 69.804 142.997 70.6491C143.295 71.4943 143.733 72.1624 144.313 72.6534C144.901 73.1364 145.625 73.3778 146.486 73.3778ZM162.128 77L157.081 58.4545H162.285L165.158 70.9148H165.328L168.322 58.4545H173.429L176.472 70.8423H176.629L179.454 58.4545H184.646L179.611 77H174.166L170.978 65.3366H170.749L167.561 77H162.128ZM193.758 77.3018C192.35 77.3018 191.074 76.9396 189.931 76.2152C188.796 75.4827 187.895 74.4081 187.226 72.9915C186.566 71.5668 186.236 69.8201 186.236 67.7514C186.236 65.6264 186.579 63.8596 187.263 62.451C187.947 61.0343 188.856 59.9759 189.991 59.2756C191.134 58.5672 192.386 58.2131 193.746 58.2131C194.785 58.2131 195.65 58.3902 196.342 58.7443C197.043 59.0904 197.606 59.5251 198.033 60.0483C198.467 60.5634 198.797 61.0705 199.023 61.5696H199.18V52.2727H204.311V77H199.24V74.0298H199.023C198.781 74.545 198.439 75.0561 197.996 75.5632C197.562 76.0623 196.994 76.4768 196.294 76.8068C195.602 77.1368 194.757 77.3018 193.758 77.3018ZM195.388 73.2088C196.217 73.2088 196.918 72.9834 197.489 72.5327C198.069 72.0739 198.512 71.4339 198.817 70.6129C199.131 69.7919 199.288 68.83 199.288 67.7273C199.288 66.6245 199.135 65.6667 198.829 64.8537C198.524 64.0407 198.081 63.4129 197.501 62.9702C196.922 62.5275 196.217 62.3061 195.388 62.3061C194.543 62.3061 193.831 62.5355 193.251 62.9943C192.672 63.4531 192.233 64.089 191.935 64.902C191.637 65.715 191.489 66.6567 191.489 67.7273C191.489 68.8059 191.637 69.7597 191.935 70.5888C192.241 71.4098 192.68 72.0537 193.251 72.5206C193.831 72.9794 194.543 73.2088 195.388 73.2088ZM216.992 77.3622C215.084 77.3622 213.442 76.9759 212.065 76.2031C210.697 75.4223 209.643 74.3196 208.902 72.8949C208.162 71.4621 207.791 69.7678 207.791 67.8118C207.791 65.9041 208.162 64.2299 208.902 62.7891C209.643 61.3482 210.685 60.2254 212.029 59.4205C213.381 58.6155 214.967 58.2131 216.786 58.2131C218.01 58.2131 219.149 58.4103 220.203 58.8047C221.266 59.1911 222.191 59.7746 222.98 60.5554C223.777 61.3362 224.397 62.3182 224.84 63.5014C225.282 64.6766 225.504 66.053 225.504 67.6307V69.0433H209.844V65.8558H220.662C220.662 65.1153 220.501 64.4593 220.179 63.8878C219.857 63.3163 219.41 62.8696 218.839 62.5476C218.275 62.2176 217.619 62.0526 216.871 62.0526C216.09 62.0526 215.398 62.2337 214.794 62.5959C214.198 62.95 213.732 63.429 213.394 64.0327C213.055 64.6283 212.882 65.2924 212.874 66.0249V69.0554C212.874 69.973 213.043 70.7659 213.381 71.4339C213.728 72.102 214.215 72.6172 214.842 72.9794C215.47 73.3416 216.215 73.5227 217.076 73.5227C217.648 73.5227 218.171 73.4422 218.646 73.2812C219.121 73.1203 219.527 72.8788 219.865 72.5568C220.203 72.2348 220.461 71.8404 220.638 71.3736L225.395 71.6875C225.153 72.8305 224.658 73.8286 223.91 74.6818C223.169 75.527 222.212 76.187 221.036 76.6619C219.869 77.1288 218.521 77.3622 216.992 77.3622ZM245.652 58.4545L239.168 77H233.373L226.889 58.4545H232.322L236.174 71.7237H236.367L240.207 58.4545H245.652ZM263.714 63.7429L259.006 64.0327C258.925 63.6302 258.752 63.268 258.486 62.946C258.221 62.616 257.871 62.3544 257.436 62.1612C257.009 61.96 256.498 61.8594 255.903 61.8594C255.106 61.8594 254.434 62.0284 253.886 62.3665C253.339 62.6965 253.065 63.1392 253.065 63.6946C253.065 64.1373 253.242 64.5116 253.597 64.8175C253.951 65.1233 254.558 65.3688 255.42 65.554L258.776 66.2301C260.579 66.6004 261.923 67.196 262.809 68.017C263.694 68.8381 264.137 69.9167 264.137 71.2528C264.137 72.4683 263.779 73.5348 263.062 74.4524C262.354 75.37 261.38 76.0864 260.141 76.6016C258.909 77.1087 257.488 77.3622 255.878 77.3622C253.423 77.3622 251.467 76.8511 250.011 75.8288C248.562 74.7985 247.713 73.398 247.463 71.6271L252.522 71.3615C252.675 72.1101 253.045 72.6816 253.633 73.076C254.22 73.4624 254.973 73.6555 255.891 73.6555C256.792 73.6555 257.516 73.4825 258.064 73.1364C258.619 72.7822 258.901 72.3274 258.909 71.772C258.901 71.3052 258.704 70.9228 258.317 70.625C257.931 70.3191 257.335 70.0857 256.53 69.9247L253.319 69.2848C251.508 68.9226 250.159 68.2947 249.274 67.4013C248.397 66.5078 247.958 65.3688 247.958 63.9844C247.958 62.7931 248.28 61.7668 248.924 60.9055C249.576 60.0443 250.489 59.3802 251.665 58.9134C252.848 58.4465 254.232 58.2131 255.818 58.2131C258.16 58.2131 260.004 58.7081 261.348 59.6982C262.7 60.6882 263.489 62.0365 263.714 63.7429Z" fill="white"/>
<path d="M65.623 68.7284L68.8848 67.4044C68.6111 66.582 68.3667 65.7694 68.1518 64.9665C67.9368 64.1636 67.7512 63.3314 67.5951 62.4697L65.626 63.7929L65.623 68.7284ZM72.2341 66.9911L78.9029 66.9578C79.4127 65.8216 79.8151 64.4602 80.1098 62.8736C80.4045 61.287 80.5523 59.6711 80.5533 58.026C80.5549 55.284 80.106 52.6893 79.2066 50.2417C78.3071 47.794 77.1037 45.9146 75.5964 44.6033C74.0876 45.9164 72.8771 47.8022 71.9649 50.2606C71.0527 52.7191 70.5958 55.3193 70.5942 58.0613C70.5932 59.7064 70.7392 61.3221 71.032 62.9083C71.3248 64.4946 71.7255 65.8555 72.2341 66.9911ZM75.558 59.8504C74.6571 59.8509 73.8788 59.5233 73.2231 58.8676C72.5673 58.2119 72.2397 57.4336 72.2403 56.5326C72.2408 55.6317 72.5742 54.8481 73.2405 54.1818C73.9068 53.5155 74.6904 53.1821 75.5913 53.1816C76.4923 53.181 77.2706 53.5086 77.9263 54.1643C78.582 54.8201 78.9096 55.5984 78.9091 56.4993C78.9085 57.4002 78.5751 58.1838 77.9088 58.8501C77.2425 59.5164 76.4589 59.8498 75.558 59.8504ZM85.5412 68.7165L85.5441 63.7811L83.5766 62.4602C83.4194 63.3221 83.228 64.1497 83.0023 64.943C82.7766 65.7363 82.5264 66.5444 82.2517 67.3671L85.5412 68.7165ZM75.5696 40.3435C78.3103 42.3395 80.3849 44.8746 81.7932 47.9486C83.2015 51.0227 83.9044 54.5966 83.902 58.6703L87.3966 60.9891C87.8665 61.3022 88.2285 61.7034 88.4829 62.1929C88.7372 62.6824 88.8642 63.2013 88.8638 63.7497L88.858 73.6207L80.6048 70.3059L70.5576 70.3118L62.3004 73.6364L62.2769 63.7949C62.2772 63.2465 62.4097 62.7225 62.6744 62.2229C62.9391 61.7233 63.3066 61.3167 63.7768 61.0031L67.2742 58.6802C67.2766 54.6064 67.974 51.0317 69.3663 47.956C70.7587 44.8803 72.8265 42.3428 75.5696 40.3435ZM70.5825 77.7444C70.5833 76.3734 71.0737 75.1882 72.0535 74.1888C73.0334 73.1894 74.2088 72.6893 75.5798 72.6885C76.9507 72.6876 78.1255 73.1864 79.1042 74.1846C80.0829 75.1829 80.5718 76.3675 80.571 77.7385C80.5704 78.7177 80.1731 79.9567 79.379 81.4555C78.5849 82.9542 77.3156 84.8498 75.5712 87.1423C73.8295 84.8519 72.5624 82.9578 71.7701 81.46C70.9778 79.9622 70.582 78.7237 70.5825 77.7444ZM73.9022 77.7131C73.902 78.1048 74.0633 78.658 74.386 79.3726C74.7087 80.0873 75.0951 80.7481 75.5452 81.3549C75.9961 80.7475 76.3882 80.0912 76.7215 79.3859C77.0549 78.6807 77.2217 78.1322 77.2219 77.7405C77.2222 77.2704 77.0658 76.8592 76.7526 76.5069C76.4395 76.1545 76.0479 75.9785 75.5778 75.9788C75.1078 75.9791 74.7111 76.1507 74.3877 76.4936C74.0643 76.8365 73.9025 77.243 73.9022 77.7131Z" fill="#00DB1D"/>
<path d="M357.813 186L345.743 143.818H355.485L362.467 173.127H362.818L370.521 143.818H378.862L386.545 173.189H386.916L393.898 143.818H403.64L391.57 186H382.879L374.846 158.421H374.516L366.504 186H357.813ZM419.268 186.618C416.013 186.618 413.212 185.959 410.864 184.641C408.53 183.309 406.731 181.428 405.468 178.997C404.205 176.553 403.573 173.663 403.573 170.326C403.573 167.072 404.205 164.216 405.468 161.758C406.731 159.3 408.509 157.384 410.802 156.011C413.109 154.638 415.814 153.952 418.918 153.952C421.005 153.952 422.948 154.288 424.746 154.961C426.559 155.62 428.138 156.616 429.484 157.947C430.843 159.279 431.9 160.955 432.655 162.973C433.411 164.978 433.788 167.326 433.788 170.017V172.427H407.074V166.989H425.529C425.529 165.726 425.254 164.607 424.705 163.632C424.156 162.657 423.394 161.895 422.419 161.346C421.458 160.783 420.339 160.501 419.062 160.501C417.73 160.501 416.549 160.81 415.519 161.428C414.503 162.032 413.707 162.849 413.13 163.879C412.553 164.895 412.258 166.028 412.244 167.278V172.447C412.244 174.013 412.533 175.365 413.109 176.505C413.7 177.645 414.53 178.523 415.601 179.141C416.672 179.759 417.943 180.068 419.412 180.068C420.387 180.068 421.279 179.931 422.089 179.656C422.9 179.382 423.593 178.97 424.17 178.42C424.746 177.871 425.186 177.198 425.488 176.402L433.603 176.938C433.191 178.887 432.347 180.59 431.07 182.045C429.806 183.487 428.172 184.613 426.168 185.423C424.177 186.22 421.877 186.618 419.268 186.618ZM460.373 186H450.816L465.378 143.818H476.871L491.412 186H481.856L471.29 153.457H470.96L460.373 186ZM459.776 169.42H482.35V176.381H459.776V169.42ZM496.325 186V154.364H504.831V159.884H505.161C505.737 157.92 506.705 156.437 508.065 155.435C509.424 154.419 510.989 153.911 512.761 153.911C513.2 153.911 513.674 153.938 514.182 153.993C514.69 154.048 515.136 154.123 515.521 154.219V162.005C515.109 161.881 514.539 161.772 513.811 161.675C513.083 161.579 512.417 161.531 511.813 161.531C510.523 161.531 509.369 161.813 508.353 162.376C507.351 162.925 506.554 163.694 505.964 164.683C505.387 165.671 505.099 166.811 505.099 168.102V186H496.325ZM533.002 186.618C529.748 186.618 526.947 185.959 524.599 184.641C522.264 183.309 520.466 181.428 519.202 178.997C517.939 176.553 517.307 173.663 517.307 170.326C517.307 167.072 517.939 164.216 519.202 161.758C520.466 159.3 522.244 157.384 524.537 156.011C526.844 154.638 529.549 153.952 532.652 153.952C534.739 153.952 536.682 154.288 538.481 154.961C540.293 155.62 541.872 156.616 543.218 157.947C544.577 159.279 545.635 160.955 546.39 162.973C547.145 164.978 547.523 167.326 547.523 170.017V172.427H520.809V166.989H539.263C539.263 165.726 538.989 164.607 538.44 163.632C537.89 162.657 537.128 161.895 536.153 161.346C535.192 160.783 534.073 160.501 532.796 160.501C531.464 160.501 530.283 160.81 529.253 161.428C528.237 162.032 527.441 162.849 526.864 163.879C526.288 164.895 525.992 166.028 525.979 167.278V172.447C525.979 174.013 526.267 175.365 526.844 176.505C527.434 177.645 528.265 178.523 529.336 179.141C530.407 179.759 531.677 180.068 533.146 180.068C534.121 180.068 535.014 179.931 535.824 179.656C536.634 179.382 537.327 178.97 537.904 178.42C538.481 177.871 538.92 177.198 539.222 176.402L547.337 176.938C546.925 178.887 546.081 180.59 544.804 182.045C543.541 183.487 541.907 184.613 539.902 185.423C537.911 186.22 535.611 186.618 533.002 186.618ZM620.785 256.618C617.874 256.618 615.361 256.096 613.246 255.053C611.132 254.009 609.505 252.595 608.365 250.81C607.239 249.011 606.676 247.006 606.676 244.795C606.676 243.148 607.006 241.685 607.665 240.408C608.324 239.131 609.244 237.957 610.425 236.886C611.605 235.802 612.979 234.724 614.544 233.653L622.721 228.277C623.778 227.604 624.554 226.897 625.048 226.156C625.543 225.4 625.79 224.583 625.79 223.705C625.79 222.867 625.453 222.091 624.78 221.377C624.108 220.663 623.153 220.313 621.918 220.327C621.094 220.327 620.38 220.512 619.775 220.883C619.171 221.24 618.698 221.714 618.354 222.304C618.025 222.881 617.86 223.526 617.86 224.24C617.86 225.119 618.107 226.011 618.601 226.918C619.096 227.824 619.755 228.785 620.579 229.801C621.403 230.804 622.302 231.888 623.277 233.055L643.276 256H634.131L617.448 237.422C616.35 236.172 615.251 234.868 614.153 233.509C613.068 232.135 612.162 230.68 611.434 229.142C610.706 227.59 610.342 225.908 610.342 224.096C610.342 222.05 610.816 220.21 611.763 218.576C612.725 216.942 614.07 215.651 615.8 214.704C617.53 213.743 619.549 213.262 621.856 213.262C624.108 213.262 626.051 213.722 627.685 214.642C629.332 215.548 630.596 216.757 631.474 218.267C632.367 219.764 632.813 221.411 632.813 223.21C632.813 225.201 632.319 227.007 631.33 228.627C630.355 230.234 628.982 231.675 627.211 232.952L618.601 239.152C617.434 240.003 616.569 240.875 616.006 241.768C615.457 242.647 615.182 243.491 615.182 244.301C615.182 245.304 615.43 246.203 615.924 246.999C616.418 247.796 617.119 248.427 618.025 248.894C618.931 249.347 619.995 249.574 621.217 249.574C622.7 249.574 624.163 249.237 625.604 248.565C627.06 247.878 628.378 246.91 629.559 245.661C630.753 244.397 631.708 242.901 632.422 241.17C633.136 239.44 633.493 237.525 633.493 235.424H640.763C640.763 238.005 640.482 240.333 639.919 242.406C639.356 244.466 638.573 246.265 637.571 247.803C636.569 249.327 635.422 250.576 634.131 251.551C633.719 251.812 633.321 252.059 632.937 252.293C632.552 252.526 632.154 252.773 631.742 253.034C630.177 254.297 628.426 255.21 626.49 255.773C624.568 256.336 622.666 256.618 620.785 256.618ZM697.739 228.586H688.717C688.553 227.419 688.216 226.382 687.708 225.476C687.2 224.556 686.548 223.773 685.752 223.128C684.955 222.482 684.035 221.988 682.992 221.645C681.962 221.302 680.843 221.13 679.634 221.13C677.451 221.13 675.549 221.672 673.929 222.757C672.309 223.828 671.052 225.393 670.16 227.453C669.267 229.499 668.821 231.984 668.821 234.909C668.821 237.916 669.267 240.443 670.16 242.489C671.066 244.535 672.329 246.079 673.95 247.123C675.57 248.166 677.444 248.688 679.573 248.688C680.767 248.688 681.872 248.53 682.889 248.214C683.918 247.899 684.832 247.439 685.628 246.835C686.424 246.217 687.083 245.468 687.605 244.589C688.141 243.711 688.511 242.708 688.717 241.582L697.739 241.624C697.505 243.56 696.922 245.427 695.988 247.226C695.068 249.011 693.825 250.611 692.26 252.025C690.708 253.425 688.855 254.538 686.699 255.362C684.557 256.172 682.133 256.577 679.428 256.577C675.666 256.577 672.302 255.725 669.336 254.023C666.384 252.32 664.05 249.855 662.333 246.629C660.631 243.402 659.779 239.495 659.779 234.909C659.779 230.309 660.644 226.396 662.374 223.169C664.104 219.942 666.453 217.484 669.418 215.795C672.384 214.093 675.721 213.241 679.428 213.241C681.872 213.241 684.138 213.585 686.225 214.271C688.326 214.958 690.187 215.96 691.807 217.278C693.427 218.583 694.745 220.183 695.761 222.077C696.791 223.972 697.45 226.142 697.739 228.586ZM724.257 242.53V224.364H733.031V256H724.607V250.254H724.277C723.563 252.107 722.376 253.597 720.714 254.723C719.066 255.849 717.055 256.412 714.679 256.412C712.565 256.412 710.704 255.931 709.098 254.97C707.491 254.009 706.235 252.643 705.329 250.871C704.436 249.1 703.983 246.979 703.969 244.507V224.364H712.743V242.942C712.757 244.809 713.258 246.285 714.247 247.37C715.236 248.455 716.561 248.997 718.222 248.997C719.279 248.997 720.268 248.757 721.188 248.276C722.108 247.782 722.849 247.054 723.412 246.093C723.989 245.132 724.271 243.944 724.257 242.53ZM766.372 233.385L758.339 233.879C758.202 233.193 757.907 232.575 757.453 232.026C757 231.463 756.403 231.016 755.661 230.687C754.934 230.344 754.062 230.172 753.046 230.172C751.686 230.172 750.54 230.46 749.606 231.037C748.672 231.6 748.206 232.355 748.206 233.303C748.206 234.058 748.508 234.696 749.112 235.218C749.716 235.74 750.753 236.159 752.222 236.474L757.948 237.628C761.023 238.259 763.317 239.276 764.827 240.676C766.337 242.077 767.093 243.917 767.093 246.196C767.093 248.269 766.482 250.089 765.26 251.654C764.051 253.219 762.39 254.442 760.275 255.32C758.174 256.185 755.751 256.618 753.005 256.618C748.817 256.618 745.48 255.746 742.995 254.002C740.523 252.245 739.074 249.855 738.649 246.835L747.279 246.381C747.54 247.658 748.171 248.633 749.174 249.306C750.176 249.965 751.46 250.295 753.025 250.295C754.563 250.295 755.799 250 756.733 249.409C757.68 248.805 758.161 248.029 758.174 247.082C758.161 246.285 757.824 245.633 757.165 245.125C756.506 244.603 755.49 244.205 754.117 243.93L748.638 242.839C745.549 242.221 743.249 241.15 741.738 239.626C740.242 238.102 739.493 236.159 739.493 233.797C739.493 231.765 740.042 230.014 741.141 228.545C742.253 227.076 743.812 225.943 745.816 225.146C747.835 224.35 750.197 223.952 752.902 223.952C756.897 223.952 760.042 224.796 762.335 226.485C764.642 228.174 765.987 230.474 766.372 233.385ZM789.445 224.364V230.955H770.393V224.364H789.445ZM774.718 216.784H783.493V246.278C783.493 247.089 783.616 247.72 783.863 248.173C784.111 248.613 784.454 248.922 784.893 249.1C785.346 249.279 785.868 249.368 786.459 249.368C786.87 249.368 787.282 249.334 787.694 249.265C788.106 249.183 788.422 249.121 788.642 249.08L790.022 255.609C789.582 255.746 788.964 255.904 788.168 256.082C787.372 256.275 786.404 256.391 785.264 256.433C783.149 256.515 781.296 256.233 779.703 255.588C778.124 254.943 776.895 253.94 776.016 252.581C775.137 251.222 774.705 249.505 774.718 247.432V216.784ZM809.115 256.618C805.915 256.618 803.149 255.938 800.814 254.579C798.494 253.206 796.702 251.297 795.439 248.853C794.175 246.395 793.544 243.546 793.544 240.305C793.544 237.037 794.175 234.181 795.439 231.737C796.702 229.279 798.494 227.371 800.814 226.011C803.149 224.638 805.915 223.952 809.115 223.952C812.314 223.952 815.074 224.638 817.395 226.011C819.729 227.371 821.528 229.279 822.791 231.737C824.054 234.181 824.686 237.037 824.686 240.305C824.686 243.546 824.054 246.395 822.791 248.853C821.528 251.297 819.729 253.206 817.395 254.579C815.074 255.938 812.314 256.618 809.115 256.618ZM809.156 249.821C810.611 249.821 811.827 249.409 812.802 248.585C813.776 247.748 814.511 246.608 815.005 245.166C815.513 243.724 815.767 242.084 815.767 240.244C815.767 238.404 815.513 236.763 815.005 235.321C814.511 233.879 813.776 232.74 812.802 231.902C811.827 231.064 810.611 230.646 809.156 230.646C807.687 230.646 806.451 231.064 805.449 231.902C804.46 232.74 803.712 233.879 803.204 235.321C802.709 236.763 802.462 238.404 802.462 240.244C802.462 242.084 802.709 243.724 803.204 245.166C803.712 246.608 804.46 247.748 805.449 248.585C806.451 249.409 807.687 249.821 809.156 249.821ZM830.391 256V224.364H838.753V229.945H839.124C839.783 228.092 840.882 226.629 842.419 225.558C843.957 224.487 845.797 223.952 847.939 223.952C850.109 223.952 851.956 224.494 853.48 225.579C855.004 226.65 856.02 228.105 856.528 229.945H856.858C857.503 228.133 858.67 226.684 860.359 225.599C862.062 224.501 864.073 223.952 866.394 223.952C869.346 223.952 871.742 224.892 873.582 226.773C875.436 228.641 876.363 231.291 876.363 234.724V256H867.609V236.454C867.609 234.696 867.142 233.378 866.209 232.499C865.275 231.621 864.108 231.181 862.707 231.181C861.114 231.181 859.872 231.689 858.979 232.705C858.087 233.708 857.64 235.033 857.64 236.68V256H849.134V236.268C849.134 234.717 848.688 233.481 847.795 232.561C846.916 231.641 845.756 231.181 844.314 231.181C843.339 231.181 842.461 231.428 841.678 231.923C840.909 232.403 840.298 233.083 839.845 233.962C839.392 234.827 839.165 235.843 839.165 237.01V256H830.391ZM897.711 256.618C894.457 256.618 891.656 255.959 889.308 254.641C886.973 253.309 885.175 251.428 883.911 248.997C882.648 246.553 882.016 243.663 882.016 240.326C882.016 237.072 882.648 234.216 883.911 231.758C885.175 229.3 886.953 227.384 889.246 226.011C891.553 224.638 894.258 223.952 897.361 223.952C899.448 223.952 901.391 224.288 903.19 224.961C905.002 225.62 906.581 226.616 907.927 227.947C909.286 229.279 910.344 230.955 911.099 232.973C911.854 234.978 912.232 237.326 912.232 240.017V242.427H885.518V236.989H903.972C903.972 235.726 903.698 234.607 903.149 233.632C902.599 232.657 901.837 231.895 900.862 231.346C899.901 230.783 898.782 230.501 897.505 230.501C896.173 230.501 894.992 230.81 893.962 231.428C892.946 232.032 892.15 232.849 891.573 233.879C890.997 234.895 890.701 236.028 890.688 237.278V242.447C890.688 244.013 890.976 245.365 891.553 246.505C892.143 247.645 892.974 248.523 894.045 249.141C895.116 249.759 896.386 250.068 897.855 250.068C898.83 250.068 899.723 249.931 900.533 249.656C901.343 249.382 902.036 248.97 902.613 248.42C903.19 247.871 903.629 247.198 903.931 246.402L912.046 246.938C911.634 248.887 910.79 250.59 909.513 252.045C908.25 253.487 906.616 254.613 904.611 255.423C902.62 256.22 900.32 256.618 897.711 256.618ZM917.957 256V224.364H926.464V229.884H926.793C927.37 227.92 928.338 226.437 929.698 225.435C931.057 224.419 932.622 223.911 934.394 223.911C934.833 223.911 935.307 223.938 935.815 223.993C936.323 224.048 936.769 224.123 937.153 224.219V232.005C936.742 231.881 936.172 231.772 935.444 231.675C934.716 231.579 934.05 231.531 933.446 231.531C932.155 231.531 931.002 231.813 929.986 232.376C928.984 232.925 928.187 233.694 927.597 234.683C927.02 235.671 926.732 236.811 926.732 238.102V256H917.957ZM968.012 233.385L959.98 233.879C959.842 233.193 959.547 232.575 959.094 232.026C958.641 231.463 958.044 231.016 957.302 230.687C956.574 230.344 955.702 230.172 954.686 230.172C953.327 230.172 952.18 230.46 951.247 231.037C950.313 231.6 949.846 232.355 949.846 233.303C949.846 234.058 950.148 234.696 950.752 235.218C951.357 235.74 952.393 236.159 953.862 236.474L959.588 237.628C962.664 238.259 964.957 239.276 966.468 240.676C967.978 242.077 968.733 243.917 968.733 246.196C968.733 248.269 968.122 250.089 966.9 251.654C965.692 253.219 964.03 254.442 961.916 255.32C959.815 256.185 957.391 256.618 954.645 256.618C950.457 256.618 947.121 255.746 944.635 254.002C942.164 252.245 940.715 249.855 940.289 246.835L948.919 246.381C949.18 247.658 949.812 248.633 950.814 249.306C951.817 249.965 953.1 250.295 954.666 250.295C956.204 250.295 957.439 250 958.373 249.409C959.321 248.805 959.801 248.029 959.815 247.082C959.801 246.285 959.465 245.633 958.806 245.125C958.147 244.603 957.13 244.205 955.757 243.93L950.279 242.839C947.189 242.221 944.889 241.15 943.379 239.626C941.882 238.102 941.134 236.159 941.134 233.797C941.134 231.765 941.683 230.014 942.782 228.545C943.894 227.076 945.452 225.943 947.457 225.146C949.475 224.35 951.837 223.952 954.542 223.952C958.538 223.952 961.682 224.796 963.975 226.485C966.282 228.174 967.628 230.474 968.012 233.385Z" fill="white"/>
<path d="M604.055 158.586H595.034C594.869 157.419 594.533 156.382 594.025 155.476C593.517 154.556 592.864 153.773 592.068 153.128C591.272 152.482 590.352 151.988 589.308 151.645C588.278 151.302 587.159 151.13 585.951 151.13C583.767 151.13 581.866 151.672 580.245 152.757C578.625 153.828 577.369 155.393 576.476 157.453C575.584 159.499 575.138 161.984 575.138 164.909C575.138 167.916 575.584 170.443 576.476 172.489C577.383 174.535 578.646 176.079 580.266 177.123C581.886 178.166 583.761 178.688 585.889 178.688C587.084 178.688 588.189 178.53 589.205 178.214C590.235 177.899 591.148 177.439 591.944 176.835C592.741 176.217 593.4 175.468 593.922 174.589C594.457 173.711 594.828 172.708 595.034 171.582L604.055 171.624C603.822 173.56 603.238 175.427 602.304 177.226C601.384 179.011 600.142 180.611 598.576 182.025C597.025 183.425 595.171 184.538 593.015 185.362C590.873 186.172 588.45 186.577 585.745 186.577C581.982 186.577 578.618 185.725 575.652 184.023C572.7 182.32 570.366 179.855 568.65 176.629C566.947 173.402 566.096 169.495 566.096 164.909C566.096 160.309 566.961 156.396 568.691 153.169C570.421 149.942 572.769 147.484 575.735 145.795C578.701 144.093 582.037 143.241 585.745 143.241C588.189 143.241 590.455 143.585 592.542 144.271C594.642 144.958 596.503 145.96 598.123 147.278C599.744 148.583 601.062 150.183 602.078 152.077C603.108 153.972 603.767 156.142 604.055 158.586ZM624.58 186.618C621.38 186.618 618.613 185.938 616.279 184.579C613.959 183.206 612.167 181.297 610.903 178.853C609.64 176.395 609.009 173.546 609.009 170.305C609.009 167.037 609.64 164.181 610.903 161.737C612.167 159.279 613.959 157.371 616.279 156.011C618.613 154.638 621.38 153.952 624.58 153.952C627.779 153.952 630.539 154.638 632.859 156.011C635.194 157.371 636.993 159.279 638.256 161.737C639.519 164.181 640.151 167.037 640.151 170.305C640.151 173.546 639.519 176.395 638.256 178.853C636.993 181.297 635.194 183.206 632.859 184.579C630.539 185.938 627.779 186.618 624.58 186.618ZM624.621 179.821C626.076 179.821 627.292 179.409 628.266 178.585C629.241 177.748 629.976 176.608 630.47 175.166C630.978 173.724 631.232 172.084 631.232 170.244C631.232 168.404 630.978 166.763 630.47 165.321C629.976 163.879 629.241 162.74 628.266 161.902C627.292 161.064 626.076 160.646 624.621 160.646C623.152 160.646 621.916 161.064 620.913 161.902C619.925 162.74 619.176 163.879 618.668 165.321C618.174 166.763 617.927 168.404 617.927 170.244C617.927 172.084 618.174 173.724 618.668 175.166C619.176 176.608 619.925 177.748 620.913 178.585C621.916 179.409 623.152 179.821 624.621 179.821ZM654.63 167.71V186H645.856V154.364H654.218V159.945H654.589C655.289 158.105 656.463 156.65 658.111 155.579C659.759 154.494 661.756 153.952 664.104 153.952C666.301 153.952 668.217 154.432 669.851 155.393C671.485 156.355 672.755 157.728 673.661 159.513C674.568 161.284 675.021 163.399 675.021 165.857V186H666.247V167.422C666.26 165.486 665.766 163.975 664.764 162.891C663.761 161.792 662.381 161.243 660.624 161.243C659.443 161.243 658.399 161.497 657.493 162.005C656.6 162.513 655.9 163.254 655.392 164.229C654.898 165.191 654.644 166.351 654.63 167.71ZM690.71 167.71V186H681.936V154.364H690.298V159.945H690.669C691.369 158.105 692.543 156.65 694.191 155.579C695.839 154.494 697.837 153.952 700.185 153.952C702.382 153.952 704.297 154.432 705.931 155.393C707.565 156.355 708.835 157.728 709.741 159.513C710.648 161.284 711.101 163.399 711.101 165.857V186H702.327V167.422C702.34 165.486 701.846 163.975 700.844 162.891C699.841 161.792 698.461 161.243 696.704 161.243C695.523 161.243 694.479 161.497 693.573 162.005C692.681 162.513 691.98 163.254 691.472 164.229C690.978 165.191 690.724 166.351 690.71 167.71ZM732.434 186.618C729.179 186.618 726.378 185.959 724.03 184.641C721.696 183.309 719.897 181.428 718.634 178.997C717.371 176.553 716.739 173.663 716.739 170.326C716.739 167.072 717.371 164.216 718.634 161.758C719.897 159.3 721.675 157.384 723.968 156.011C726.275 154.638 728.98 153.952 732.084 153.952C734.171 153.952 736.114 154.288 737.912 154.961C739.725 155.62 741.304 156.616 742.65 157.947C744.009 159.279 745.066 160.955 745.821 162.973C746.577 164.978 746.954 167.326 746.954 170.017V172.427H720.241V166.989H738.695C738.695 165.726 738.42 164.607 737.871 163.632C737.322 162.657 736.56 161.895 735.585 161.346C734.624 160.783 733.505 160.501 732.228 160.501C730.896 160.501 729.715 160.81 728.685 161.428C727.669 162.032 726.873 162.849 726.296 163.879C725.719 164.895 725.424 166.028 725.41 167.278V172.447C725.41 174.013 725.699 175.365 726.275 176.505C726.866 177.645 727.696 178.523 728.767 179.141C729.839 179.759 731.109 180.068 732.578 180.068C733.553 180.068 734.445 179.931 735.255 179.656C736.066 179.382 736.759 178.97 737.336 178.42C737.912 177.871 738.352 177.198 738.654 176.402L746.769 176.938C746.357 178.887 745.513 180.59 744.236 182.045C742.972 183.487 741.338 184.613 739.334 185.423C737.343 186.22 735.043 186.618 732.434 186.618ZM766.974 186.618C763.734 186.618 760.946 185.931 758.612 184.558C756.291 183.171 754.506 181.249 753.257 178.791C752.021 176.333 751.403 173.505 751.403 170.305C751.403 167.065 752.028 164.223 753.277 161.778C754.541 159.321 756.333 157.405 758.653 156.032C760.974 154.645 763.734 153.952 766.933 153.952C769.693 153.952 772.11 154.453 774.183 155.455C776.256 156.458 777.897 157.865 779.106 159.678C780.314 161.49 780.98 163.618 781.103 166.062H772.824C772.59 164.483 771.972 163.213 770.97 162.252C769.981 161.277 768.684 160.79 767.077 160.79C765.718 160.79 764.53 161.161 763.514 161.902C762.512 162.63 761.729 163.694 761.166 165.094C760.603 166.495 760.321 168.191 760.321 170.182C760.321 172.2 760.596 173.917 761.145 175.331C761.708 176.745 762.498 177.823 763.514 178.565C764.53 179.306 765.718 179.677 767.077 179.677C768.08 179.677 768.979 179.471 769.775 179.059C770.585 178.647 771.251 178.05 771.773 177.267C772.309 176.471 772.659 175.516 772.824 174.404H781.103C780.966 176.821 780.307 178.949 779.126 180.789C777.959 182.615 776.346 184.043 774.286 185.073C772.226 186.103 769.789 186.618 766.974 186.618ZM803.549 154.364V160.955H784.497V154.364H803.549ZM788.822 146.784H797.596V176.278C797.596 177.089 797.72 177.72 797.967 178.173C798.214 178.613 798.557 178.922 798.997 179.1C799.45 179.279 799.972 179.368 800.562 179.368C800.974 179.368 801.386 179.334 801.798 179.265C802.21 179.183 802.526 179.121 802.745 179.08L804.125 185.609C803.686 185.746 803.068 185.904 802.272 186.082C801.475 186.275 800.507 186.391 799.367 186.433C797.253 186.515 795.399 186.233 793.806 185.588C792.227 184.943 790.998 183.94 790.12 182.581C789.241 181.222 788.808 179.505 788.822 177.432V146.784ZM809.264 186V154.364H818.038V186H809.264ZM813.672 150.286C812.367 150.286 811.248 149.853 810.315 148.988C809.395 148.109 808.935 147.059 808.935 145.837C808.935 144.628 809.395 143.592 810.315 142.727C811.248 141.848 812.367 141.408 813.672 141.408C814.976 141.408 816.088 141.848 817.008 142.727C817.942 143.592 818.409 144.628 818.409 145.837C818.409 147.059 817.942 148.109 817.008 148.988C816.088 149.853 814.976 150.286 813.672 150.286ZM833.841 167.71V186H825.067V154.364H833.429V159.945H833.8C834.5 158.105 835.674 156.65 837.322 155.579C838.97 154.494 840.967 153.952 843.315 153.952C845.512 153.952 847.428 154.432 849.062 155.393C850.696 156.355 851.966 157.728 852.872 159.513C853.778 161.284 854.232 163.399 854.232 165.857V186H845.457V167.422C845.471 165.486 844.977 163.975 843.975 162.891C842.972 161.792 841.592 161.243 839.835 161.243C838.654 161.243 837.61 161.497 836.704 162.005C835.811 162.513 835.111 163.254 834.603 164.229C834.109 165.191 833.855 166.351 833.841 167.71ZM875.4 198.523C872.557 198.523 870.12 198.131 868.088 197.349C866.07 196.58 864.463 195.529 863.268 194.197C862.074 192.866 861.298 191.369 860.941 189.707L869.056 188.616C869.303 189.247 869.695 189.838 870.23 190.387C870.766 190.936 871.473 191.376 872.351 191.705C873.244 192.049 874.329 192.22 875.606 192.22C877.514 192.22 879.087 191.753 880.322 190.82C881.572 189.9 882.197 188.355 882.197 186.185V180.398H881.826C881.441 181.277 880.865 182.107 880.096 182.89C879.327 183.673 878.338 184.311 877.13 184.805C875.922 185.3 874.48 185.547 872.805 185.547C870.429 185.547 868.266 184.998 866.317 183.899C864.381 182.787 862.836 181.091 861.682 178.812C860.543 176.519 859.973 173.621 859.973 170.12C859.973 166.536 860.556 163.543 861.724 161.14C862.891 158.737 864.442 156.938 866.378 155.744C868.328 154.549 870.463 153.952 872.784 153.952C874.555 153.952 876.038 154.254 877.233 154.858C878.427 155.448 879.389 156.19 880.116 157.082C880.858 157.961 881.428 158.826 881.826 159.678H882.155V154.364H890.868V186.309C890.868 189 890.209 191.252 888.891 193.065C887.572 194.877 885.746 196.237 883.412 197.143C881.091 198.063 878.421 198.523 875.4 198.523ZM875.585 178.956C876.999 178.956 878.194 178.606 879.169 177.906C880.158 177.192 880.913 176.175 881.435 174.857C881.97 173.525 882.238 171.933 882.238 170.079C882.238 168.225 881.977 166.619 881.455 165.259C880.933 163.886 880.178 162.822 879.19 162.067C878.201 161.312 876.999 160.934 875.585 160.934C874.143 160.934 872.928 161.325 871.94 162.108C870.951 162.877 870.203 163.948 869.695 165.321C869.186 166.694 868.932 168.28 868.932 170.079C868.932 171.905 869.186 173.484 869.695 174.816C870.216 176.134 870.965 177.157 871.94 177.885C872.928 178.599 874.143 178.956 875.585 178.956ZM286.862 256H271.909V213.818H286.986C291.229 213.818 294.881 214.663 297.943 216.352C301.005 218.027 303.36 220.437 305.008 223.581C306.67 226.725 307.5 230.488 307.5 234.868C307.5 239.262 306.67 243.038 305.008 246.196C303.36 249.354 300.992 251.778 297.902 253.467C294.826 255.156 291.147 256 286.862 256ZM280.828 248.359H286.492C289.128 248.359 291.346 247.892 293.144 246.958C294.957 246.011 296.316 244.548 297.223 242.571C298.143 240.58 298.603 238.012 298.603 234.868C298.603 231.751 298.143 229.204 297.223 227.227C296.316 225.249 294.964 223.794 293.165 222.86C291.366 221.926 289.149 221.46 286.512 221.46H280.828V248.359ZM328.359 256.618C325.105 256.618 322.304 255.959 319.956 254.641C317.622 253.309 315.823 251.428 314.56 248.997C313.296 246.553 312.665 243.663 312.665 240.326C312.665 237.072 313.296 234.216 314.56 231.758C315.823 229.3 317.601 227.384 319.894 226.011C322.201 224.638 324.906 223.952 328.009 223.952C330.096 223.952 332.039 224.288 333.838 224.961C335.651 225.62 337.23 226.616 338.575 227.947C339.935 229.279 340.992 230.955 341.747 232.973C342.502 234.978 342.88 237.326 342.88 240.017V242.427H316.166V236.989H334.621C334.621 235.726 334.346 234.607 333.797 233.632C333.248 232.657 332.486 231.895 331.511 231.346C330.55 230.783 329.43 230.501 328.153 230.501C326.822 230.501 325.641 230.81 324.611 231.428C323.595 232.032 322.798 232.849 322.222 233.879C321.645 234.895 321.35 236.028 321.336 237.278V242.447C321.336 244.013 321.624 245.365 322.201 246.505C322.792 247.645 323.622 248.523 324.693 249.141C325.764 249.759 327.034 250.068 328.504 250.068C329.479 250.068 330.371 249.931 331.181 249.656C331.991 249.382 332.685 248.97 333.261 248.42C333.838 247.871 334.278 247.198 334.58 246.402L342.695 246.938C342.283 248.887 341.438 250.59 340.161 252.045C338.898 253.487 337.264 254.613 335.259 255.423C333.268 256.22 330.968 256.618 328.359 256.618ZM377.251 224.364L366.19 256H356.304L345.244 224.364H354.512L361.082 246.999H361.412L367.962 224.364H377.251ZM395.139 256.618C391.884 256.618 389.083 255.959 386.735 254.641C384.401 253.309 382.602 251.428 381.339 248.997C380.076 246.553 379.444 243.663 379.444 240.326C379.444 237.072 380.076 234.216 381.339 231.758C382.602 229.3 384.38 227.384 386.674 226.011C388.98 224.638 391.685 223.952 394.789 223.952C396.876 223.952 398.819 224.288 400.617 224.961C402.43 225.62 404.009 226.616 405.355 227.947C406.714 229.279 407.771 230.955 408.527 232.973C409.282 234.978 409.659 237.326 409.659 240.017V242.427H382.946V236.989H401.4C401.4 235.726 401.126 234.607 400.576 233.632C400.027 232.657 399.265 231.895 398.29 231.346C397.329 230.783 396.21 230.501 394.933 230.501C393.601 230.501 392.42 230.81 391.39 231.428C390.374 232.032 389.578 232.849 389.001 233.879C388.424 234.895 388.129 236.028 388.115 237.278V242.447C388.115 244.013 388.404 245.365 388.98 246.505C389.571 247.645 390.402 248.523 391.473 249.141C392.544 249.759 393.814 250.068 395.283 250.068C396.258 250.068 397.15 249.931 397.96 249.656C398.771 249.382 399.464 248.97 400.041 248.42C400.617 247.871 401.057 247.198 401.359 246.402L409.474 246.938C409.062 248.887 408.218 250.59 406.941 252.045C405.677 253.487 404.043 254.613 402.039 255.423C400.048 256.22 397.748 256.618 395.139 256.618ZM424.159 213.818V256H415.385V213.818H424.159ZM445.482 256.618C442.283 256.618 439.516 255.938 437.182 254.579C434.861 253.206 433.069 251.297 431.806 248.853C430.543 246.395 429.911 243.546 429.911 240.305C429.911 237.037 430.543 234.181 431.806 231.737C433.069 229.279 434.861 227.371 437.182 226.011C439.516 224.638 442.283 223.952 445.482 223.952C448.681 223.952 451.441 224.638 453.762 226.011C456.096 227.371 457.895 229.279 459.158 231.737C460.421 234.181 461.053 237.037 461.053 240.305C461.053 243.546 460.421 246.395 459.158 248.853C457.895 251.297 456.096 253.206 453.762 254.579C451.441 255.938 448.681 256.618 445.482 256.618ZM445.523 249.821C446.979 249.821 448.194 249.409 449.169 248.585C450.144 247.748 450.878 246.608 451.373 245.166C451.881 243.724 452.135 242.084 452.135 240.244C452.135 238.404 451.881 236.763 451.373 235.321C450.878 233.879 450.144 232.74 449.169 231.902C448.194 231.064 446.979 230.646 445.523 230.646C444.054 230.646 442.818 231.064 441.816 231.902C440.827 232.74 440.079 233.879 439.571 235.321C439.076 236.763 438.829 238.404 438.829 240.244C438.829 242.084 439.076 243.724 439.571 245.166C440.079 246.608 440.827 247.748 441.816 248.585C442.818 249.409 444.054 249.821 445.523 249.821ZM466.758 267.864V224.364H475.409V229.678H475.8C476.185 228.826 476.741 227.961 477.468 227.082C478.21 226.19 479.171 225.448 480.352 224.858C481.547 224.254 483.03 223.952 484.801 223.952C487.108 223.952 489.236 224.556 491.186 225.764C493.136 226.959 494.694 228.764 495.861 231.181C497.028 233.584 497.612 236.598 497.612 240.223C497.612 243.752 497.042 246.732 495.902 249.162C494.776 251.579 493.239 253.412 491.289 254.661C489.353 255.897 487.183 256.515 484.78 256.515C483.078 256.515 481.629 256.233 480.434 255.67C479.254 255.107 478.285 254.4 477.53 253.549C476.775 252.684 476.198 251.812 475.8 250.933H475.532V267.864H466.758ZM475.347 240.182C475.347 242.063 475.608 243.704 476.13 245.104C476.651 246.505 477.407 247.597 478.395 248.379C479.384 249.148 480.585 249.533 482 249.533C483.428 249.533 484.636 249.141 485.625 248.359C486.613 247.562 487.362 246.464 487.87 245.063C488.392 243.649 488.652 242.022 488.652 240.182C488.652 238.356 488.398 236.749 487.89 235.362C487.382 233.975 486.634 232.891 485.645 232.108C484.657 231.325 483.441 230.934 482 230.934C480.572 230.934 479.363 231.312 478.375 232.067C477.4 232.822 476.651 233.893 476.13 235.28C475.608 236.667 475.347 238.301 475.347 240.182ZM517.879 256.618C514.625 256.618 511.824 255.959 509.476 254.641C507.141 253.309 505.343 251.428 504.079 248.997C502.816 246.553 502.184 243.663 502.184 240.326C502.184 237.072 502.816 234.216 504.079 231.758C505.343 229.3 507.121 227.384 509.414 226.011C511.721 224.638 514.426 223.952 517.529 223.952C519.616 223.952 521.559 224.288 523.358 224.961C525.17 225.62 526.749 226.616 528.095 227.947C529.454 229.279 530.512 230.955 531.267 232.973C532.022 234.978 532.4 237.326 532.4 240.017V242.427H505.686V236.989H524.14C524.14 235.726 523.866 234.607 523.316 233.632C522.767 232.657 522.005 231.895 521.03 231.346C520.069 230.783 518.95 230.501 517.673 230.501C516.341 230.501 515.16 230.81 514.13 231.428C513.114 232.032 512.318 232.849 511.741 233.879C511.165 234.895 510.869 236.028 510.856 237.278V242.447C510.856 244.013 511.144 245.365 511.721 246.505C512.311 247.645 513.142 248.523 514.213 249.141C515.284 249.759 516.554 250.068 518.023 250.068C518.998 250.068 519.891 249.931 520.701 249.656C521.511 249.382 522.204 248.97 522.781 248.42C523.358 247.871 523.797 247.198 524.099 246.402L532.214 246.938C531.802 248.887 530.958 250.59 529.681 252.045C528.418 253.487 526.784 254.613 524.779 255.423C522.788 256.22 520.488 256.618 517.879 256.618ZM538.125 256V224.364H546.632V229.884H546.961C547.538 227.92 548.506 226.437 549.866 225.435C551.225 224.419 552.79 223.911 554.562 223.911C555.001 223.911 555.475 223.938 555.983 223.993C556.491 224.048 556.937 224.123 557.321 224.219V232.005C556.91 231.881 556.34 231.772 555.612 231.675C554.884 231.579 554.218 231.531 553.614 231.531C552.323 231.531 551.17 231.813 550.154 232.376C549.151 232.925 548.355 233.694 547.765 234.683C547.188 235.671 546.9 236.811 546.9 238.102V256H538.125ZM588.18 233.385L580.148 233.879C580.01 233.193 579.715 232.575 579.262 232.026C578.809 231.463 578.212 231.016 577.47 230.687C576.742 230.344 575.87 230.172 574.854 230.172C573.495 230.172 572.348 230.46 571.415 231.037C570.481 231.6 570.014 232.355 570.014 233.303C570.014 234.058 570.316 234.696 570.92 235.218C571.525 235.74 572.561 236.159 574.03 236.474L579.756 237.628C582.832 238.259 585.125 239.276 586.636 240.676C588.146 242.077 588.901 243.917 588.901 246.196C588.901 248.269 588.29 250.089 587.068 251.654C585.86 253.219 584.198 254.442 582.084 255.32C579.983 256.185 577.559 256.618 574.813 256.618C570.625 256.618 567.289 255.746 564.803 254.002C562.332 252.245 560.883 249.855 560.457 246.835L569.087 246.381C569.348 247.658 569.98 248.633 570.982 249.306C571.985 249.965 573.268 250.295 574.834 250.295C576.372 250.295 577.607 250 578.541 249.409C579.489 248.805 579.969 248.029 579.983 247.082C579.969 246.285 579.633 245.633 578.974 245.125C578.315 244.603 577.298 244.205 575.925 243.93L570.447 242.839C567.357 242.221 565.057 241.15 563.547 239.626C562.05 238.102 561.302 236.159 561.302 233.797C561.302 231.765 561.851 230.014 562.949 228.545C564.062 227.076 565.62 225.943 567.625 225.146C569.643 224.35 572.005 223.952 574.71 223.952C578.706 223.952 581.85 224.796 584.143 226.485C586.45 228.174 587.796 230.474 588.18 233.385Z" fill="#00DB1D"/>
</svg>
