<svg width="41" height="41" viewBox="0 0 41 41" fill="none" xmlns="http://www.w3.org/2000/svg">
<path d="M20.5001 37.5833C18.0421 37.5833 15.7454 37.1017 13.6099 36.1385C11.4745 35.175 9.63323 33.8771 8.08605 32.2448C6.53915 30.6125 5.34574 28.7001 4.50581 26.5078C3.66588 24.3154 3.3124 21.9996 3.44536 19.5604H6.32091C6.18795 21.6104 6.45844 23.5536 7.13237 25.3901C7.80631 27.2266 8.79102 28.8399 10.0865 30.2302C11.382 31.6208 12.9242 32.7265 14.7131 33.5474C16.502 34.3682 18.431 34.7787 20.5001 34.7787C24.4671 34.7787 27.8315 33.3978 30.5933 30.636C33.3551 27.8742 34.7361 24.5097 34.7361 20.5427C34.7361 16.5757 33.3551 13.2113 30.5933 10.4494C27.8315 7.68764 24.4671 6.30674 20.5001 6.30674C17.7574 6.30674 15.2778 7.00189 13.0616 8.39219C10.8456 9.78248 9.13966 11.6071 7.94383 13.8661H13.2683V16.713H3.41675V6.83333H6.26411V11.0756C7.81101 8.75051 9.8183 6.8927 12.286 5.50211C14.7534 4.11181 17.4914 3.41666 20.5001 3.41666C22.8633 3.41666 25.0841 3.8651 27.1626 4.76198C29.2411 5.65885 31.049 6.87604 32.5865 8.41354C34.124 9.95104 35.3412 11.759 36.2381 13.8375C37.135 15.916 37.5834 18.1368 37.5834 20.5C37.5834 22.8632 37.135 25.084 36.2381 27.1625C35.3412 29.241 34.124 31.049 32.5865 32.5865C31.049 34.124 29.2411 35.3411 27.1626 36.238C25.0841 37.1349 22.8633 37.5833 20.5001 37.5833ZM17.0834 27.1911C16.6563 27.1911 16.2886 27.0368 15.9803 26.7282C15.6716 26.4198 15.5173 26.0521 15.5173 25.625V20.5C15.5173 20.0729 15.681 19.7052 16.0084 19.3968C16.3359 19.0882 16.7416 18.9339 17.2256 18.9339V17.0833C17.2256 16.1816 17.5459 15.4104 18.1866 14.7698C18.8272 14.1292 19.5984 13.8089 20.5001 13.8089C21.4018 13.8089 22.173 14.1292 22.8136 14.7698C23.4542 15.4104 23.7745 16.1816 23.7745 17.0833V18.9339C24.2586 18.9339 24.6643 19.0882 24.9917 19.3968C25.3191 19.7052 25.4829 20.0729 25.4829 20.5V25.625C25.4829 26.0521 25.3285 26.4198 25.0199 26.7282C24.7116 27.0368 24.3438 27.1911 23.9167 27.1911H17.0834ZM18.6495 18.9339H22.3506V17.0833C22.3506 16.5614 22.1727 16.1225 21.8168 15.7666C21.4609 15.4107 21.022 15.2328 20.5001 15.2328C19.9782 15.2328 19.5393 15.4107 19.1834 15.7666C18.8275 16.1225 18.6495 16.5614 18.6495 17.0833V18.9339Z" fill="#E8EAED"/>
</svg>
