<svg width="41" height="41" viewBox="0 0 41 41" fill="none" xmlns="http://www.w3.org/2000/svg">
<path d="M8.54167 35.875C7.60208 35.875 6.79774 35.5405 6.12865 34.8714C5.45955 34.2023 5.125 33.3979 5.125 32.4583V8.54167C5.125 7.60208 5.45955 6.79774 6.12865 6.12865C6.79774 5.45955 7.60208 5.125 8.54167 5.125H23.9167V8.54167H8.54167V32.4583H32.4583V17.0833H35.875V32.4583C35.875 33.3979 35.5405 34.2023 34.8714 34.8714C34.2023 35.5405 33.3979 35.875 32.4583 35.875H8.54167ZM13.6667 29.0417V25.625H27.3333V29.0417H13.6667ZM13.6667 23.9167V20.5H27.3333V23.9167H13.6667ZM13.6667 18.7917V15.375H27.3333V18.7917H13.6667ZM29.0417 15.375V11.9583H25.625V8.54167H29.0417V5.125H32.4583V8.54167H35.875V11.9583H32.4583V15.375H29.0417Z" fill="#E8EAED"/>
</svg>
