<svg width="41" height="41" viewBox="0 0 41 41" fill="none" xmlns="http://www.w3.org/2000/svg">
<path d="M20.4999 20.5C18.6207 20.5 17.0121 19.8309 15.6739 18.4927C14.3357 17.1545 13.6666 15.5458 13.6666 13.6667C13.6666 11.7875 14.3357 10.1788 15.6739 8.84062C17.0121 7.50243 18.6207 6.83333 20.4999 6.83333C22.3791 6.83333 23.9878 7.50243 25.326 8.84062C26.6641 10.1788 27.3332 11.7875 27.3332 13.6667C27.3332 15.5458 26.6641 17.1545 25.326 18.4927C23.9878 19.8309 22.3791 20.5 20.4999 20.5ZM6.83325 34.1667V29.3833C6.83325 28.4153 7.08238 27.5255 7.58065 26.7141C8.07891 25.9026 8.74089 25.2833 9.56658 24.8562C11.3319 23.9736 13.1256 23.3116 14.9478 22.8703C16.7701 22.429 18.6207 22.2083 20.4999 22.2083C22.3791 22.2083 24.2298 22.429 26.052 22.8703C27.8742 23.3116 29.668 23.9736 31.4332 24.8562C32.2589 25.2833 32.9209 25.9026 33.4192 26.7141C33.9174 27.5255 34.1666 28.4153 34.1666 29.3833V34.1667H6.83325ZM10.2499 30.75H30.7499V29.3833C30.7499 29.0701 30.6716 28.7854 30.515 28.5292C30.3584 28.2729 30.152 28.0736 29.8957 27.9312C28.3582 27.1625 26.8065 26.5859 25.2405 26.2016C23.6746 25.8172 22.0944 25.625 20.4999 25.625C18.9055 25.625 17.3253 25.8172 15.7593 26.2016C14.1933 26.5859 12.6416 27.1625 11.1041 27.9312C10.8478 28.0736 10.6414 28.2729 10.4848 28.5292C10.3282 28.7854 10.2499 29.0701 10.2499 29.3833V30.75ZM20.4999 17.0833C21.4395 17.0833 22.2438 16.7488 22.9129 16.0797C23.582 15.4106 23.9166 14.6062 23.9166 13.6667C23.9166 12.7271 23.582 11.9227 22.9129 11.2536C22.2438 10.5845 21.4395 10.25 20.4999 10.25C19.5603 10.25 18.756 10.5845 18.0869 11.2536C17.4178 11.9227 17.0832 12.7271 17.0832 13.6667C17.0832 14.6062 17.4178 15.4106 18.0869 16.0797C18.756 16.7488 19.5603 17.0833 20.4999 17.0833Z" fill="#E8EAED"/>
</svg>
