<svg width="41" height="41" viewBox="0 0 41 41" fill="none" xmlns="http://www.w3.org/2000/svg">
<path d="M23.4469 35.875L11.9583 23.9167V20.5H17.9375C19.4465 20.5 20.7491 20.0089 21.8453 19.0266C22.9415 18.0443 23.6035 16.8271 23.8313 15.375H10.25V11.9583H23.3188C22.8347 10.9618 22.1158 10.1432 21.162 9.5026C20.2082 8.86198 19.1333 8.54167 17.9375 8.54167H10.25V5.125H30.75V8.54167H25.1979C25.5965 9.02569 25.9524 9.55243 26.2656 10.1219C26.5788 10.6913 26.8208 11.3035 26.9917 11.9583H30.75V15.375H27.2906C27.0628 17.7951 26.0663 19.8238 24.301 21.4609C22.5358 23.0981 20.4146 23.9167 17.9375 23.9167H16.699L28.1875 35.875H23.4469Z" fill="#E8EAED"/>
</svg>
