<svg width="57" height="57" viewBox="0 0 57 57" fill="none" xmlns="http://www.w3.org/2000/svg">
<path opacity="0.4" d="M28.7156 30.5209C28.5239 30.4935 28.2774 30.4935 28.0583 30.5209C23.2386 30.3566 19.4047 26.4132 19.4047 21.566C19.4047 16.6093 23.4029 12.5837 28.3869 12.5837C33.3436 12.5837 37.3692 16.6093 37.3692 21.566C37.3418 26.4132 33.5353 30.3566 28.7156 30.5209Z" stroke="white" stroke-width="1.33333" stroke-linecap="round" stroke-linejoin="round"/>
<path opacity="0.34" d="M46.842 48.5952C41.9674 53.0589 35.5046 55.77 28.3845 55.77C21.2643 55.77 14.8014 53.0589 9.92691 48.5952C10.2008 46.021 11.8439 43.5016 14.7741 41.5299C22.2775 36.5459 34.5461 36.5459 41.9948 41.5299C44.925 43.5016 46.5681 46.021 46.842 48.5952Z" stroke="white" stroke-width="1.33333" stroke-linecap="round" stroke-linejoin="round"/>
<path d="M28.385 55.7697C43.5092 55.7697 55.77 43.509 55.77 28.3849C55.77 13.2606 43.5092 1 28.385 1C13.2607 1 1 13.2606 1 28.3849C1 43.509 13.2607 55.7697 28.385 55.7697Z" stroke="white" stroke-width="1.33333" stroke-linecap="round" stroke-linejoin="round"/>
</svg>
