<svg width="40" height="40" viewBox="0 0 40 40" fill="none" xmlns="http://www.w3.org/2000/svg">
<path d="M9.4165 16.7083L12.6665 18.0833C13.0554 17.3055 13.4582 16.5555 13.8748 15.8333C14.2915 15.1111 14.7498 14.3889 15.2498 13.6667L12.9165 13.2083L9.4165 16.7083ZM15.3332 20.1667L20.0832 24.875C21.2498 24.4305 22.4998 23.75 23.8332 22.8333C25.1665 21.9167 26.4165 20.875 27.5832 19.7083C29.5276 17.7639 31.0485 15.6042 32.1457 13.2292C33.2429 10.8542 33.7221 8.66666 33.5832 6.66666C31.5832 6.52777 29.3887 7.00694 26.9998 8.10416C24.611 9.20138 22.4443 10.7222 20.4998 12.6667C19.3332 13.8333 18.2915 15.0833 17.3748 16.4167C16.4582 17.75 15.7776 19 15.3332 20.1667ZM22.7498 17.4583C22.111 16.8194 21.7915 16.0347 21.7915 15.1042C21.7915 14.1736 22.111 13.3889 22.7498 12.75C23.3887 12.1111 24.1804 11.7917 25.1248 11.7917C26.0693 11.7917 26.861 12.1111 27.4998 12.75C28.1387 13.3889 28.4582 14.1736 28.4582 15.1042C28.4582 16.0347 28.1387 16.8194 27.4998 17.4583C26.861 18.0972 26.0693 18.4167 25.1248 18.4167C24.1804 18.4167 23.3887 18.0972 22.7498 17.4583ZM23.5415 30.8333L27.0415 27.3333L26.5832 25C25.861 25.5 25.1387 25.9514 24.4165 26.3542C23.6943 26.7569 22.9443 27.1528 22.1665 27.5417L23.5415 30.8333ZM36.5832 3.62499C37.111 6.9861 36.7846 10.2569 35.604 13.4375C34.4235 16.618 32.3887 19.6528 29.4998 22.5417L30.3332 26.6667C30.4443 27.2222 30.4165 27.7639 30.2498 28.2917C30.0832 28.8194 29.8054 29.2778 29.4165 29.6667L22.4165 36.6667L18.9165 28.4583L11.7915 21.3333L3.58317 17.8333L10.5415 10.8333C10.9304 10.4444 11.3957 10.1667 11.9373 9.99999C12.479 9.83333 13.0276 9.80555 13.5832 9.91666L17.7082 10.75C20.5971 7.8611 23.6248 5.81944 26.7915 4.62499C29.9582 3.43055 33.2221 3.09722 36.5832 3.62499ZM6.5415 26.625C7.51373 25.6528 8.70123 25.1597 10.104 25.1458C11.5068 25.1319 12.6943 25.6111 13.6665 26.5833C14.6387 27.5555 15.1179 28.743 15.104 30.1458C15.0901 31.5486 14.5971 32.7361 13.6248 33.7083C12.9304 34.4028 11.7707 35 10.1457 35.5C8.52067 36 6.27762 36.4444 3.4165 36.8333C3.80539 33.9722 4.24984 31.7292 4.74984 30.1042C5.24984 28.4792 5.84706 27.3194 6.5415 26.625ZM8.9165 28.9583C8.63873 29.2361 8.36095 29.743 8.08317 30.4792C7.80539 31.2153 7.61095 31.9583 7.49984 32.7083C8.24984 32.5972 8.99289 32.4097 9.729 32.1458C10.4651 31.8819 10.9721 31.6111 11.2498 31.3333C11.5832 31 11.7637 30.5972 11.7915 30.125C11.8193 29.6528 11.6665 29.25 11.3332 28.9167C10.9998 28.5833 10.5971 28.4236 10.1248 28.4375C9.65262 28.4514 9.24984 28.625 8.9165 28.9583Z" fill="#E8EAED"/>
</svg>
