<svg width="40" height="40" viewBox="0 0 40 40" fill="none" xmlns="http://www.w3.org/2000/svg">
<path d="M14.3333 37.5L11.1666 32.1667L5.16663 30.8333L5.74996 24.6667L1.66663 20L5.74996 15.3333L5.16663 9.16667L11.1666 7.83333L14.3333 2.5L20 4.91667L25.6666 2.5L28.8333 7.83333L34.8333 9.16667L34.25 15.3333L38.3333 20L34.25 24.6667L34.8333 30.8333L28.8333 32.1667L25.6666 37.5L20 35.0833L14.3333 37.5ZM15.75 33.25L20 31.4167L24.3333 33.25L26.6666 29.25L31.25 28.1667L30.8333 23.5L33.9166 20L30.8333 16.4167L31.25 11.75L26.6666 10.75L24.25 6.75L20 8.58333L15.6666 6.75L13.3333 10.75L8.74996 11.75L9.16663 16.4167L6.08329 20L9.16663 23.5L8.74996 28.25L13.3333 29.25L15.75 33.25ZM18.25 25.9167L27.6666 16.5L25.3333 14.0833L18.25 21.1667L14.6666 17.6667L12.3333 20L18.25 25.9167Z" fill="#0094FF"/>
</svg>
