<svg width="887" height="368" viewBox="0 0 887 368" fill="none" xmlns="http://www.w3.org/2000/svg">
<path d="M238.234 309.283C226.852 309.283 217.626 299.987 217.626 288.519V20.8283C217.626 9.36035 226.852 0.0644531 238.234 0.0644531H646.446C657.828 0.0644531 667.054 9.36035 667.054 20.8283V288.521C667.054 299.989 657.828 309.285 646.446 309.285H238.234V309.283Z" fill="#3E4C57"/>
<path d="M230.307 239.22V21.7938C230.307 17.202 234.002 13.48 238.559 13.48H646.119C650.677 13.48 654.371 17.202 654.371 21.7938V239.22H230.307Z" fill="#B5E3EE"/>
<path d="M509.796 345.38H374.882L385.027 309.283H499.651L509.796 345.38Z" fill="#CCCCCC"/>
<path d="M524.75 365.505H359.928C354.412 365.505 349.941 361 349.941 355.442C349.941 349.884 354.412 345.379 359.928 345.379H524.75C530.266 345.379 534.738 349.884 534.738 355.442C534.738 361 530.266 365.505 524.75 365.505Z" fill="#DEDEDE"/>
<path d="M217.626 253.701V288.521C217.626 299.989 226.852 309.285 238.234 309.285H646.446C657.828 309.285 667.054 299.989 667.054 288.521V253.701H217.626Z" fill="#D9D9D9"/>
<path d="M645.15 280.321C645.15 284.718 641.614 288.281 637.25 288.281C632.886 288.281 629.35 284.716 629.35 280.321C629.35 275.925 632.886 272.362 637.25 272.362C641.614 272.362 645.15 275.925 645.15 280.321Z" fill="#656D79"/>
<path opacity="0.3" d="M385.028 309.283H499.651L509.796 345.38L385.028 309.283Z" fill="#D8D9DB"/>
<mask id="mask0_66_1202" style="mask-type:luminance" maskUnits="userSpaceOnUse" x="229" y="13" width="426" height="227">
<path d="M229.925 239.22V21.8011C229.925 17.2056 233.623 13.48 238.184 13.48H646.494C651.055 13.48 654.753 17.2056 654.753 21.8011V239.22H229.925Z" fill="white"/>
</mask>
<g mask="url(#mask0_66_1202)">
<path d="M654.753 3.46973H229.925V298.206H654.753V3.46973Z" fill="white"/>
<path d="M654.753 3.46973H229.925V124.108H654.753V3.46973Z" fill="#DDDDDD"/>
<path d="M379.944 144.25H295.34V284.661H379.944V144.25Z" fill="#F3A59E"/>
<path d="M589.338 144.25H504.734V284.661H589.338V144.25Z" fill="#F3A59E"/>
<path d="M486.178 144.25H401.574V284.661H486.178V144.25Z" fill="#F3A59E"/>
<path d="M335.312 59.2216C344.457 50.0075 344.457 35.0686 335.312 25.8546C326.167 16.6406 311.34 16.6406 302.195 25.8546C293.05 35.0686 293.05 50.0075 302.195 59.2216C311.34 68.4356 326.167 68.4356 335.312 59.2216Z" fill="#73C99D"/>
<path d="M523.228 29.733H354.17C351.962 29.733 350.172 27.9298 350.172 25.7053C350.172 23.4808 351.962 21.6777 354.17 21.6777H523.228C525.436 21.6777 527.226 23.4808 527.226 25.7053C527.226 27.9298 525.436 29.733 523.228 29.733Z" fill="#262626"/>
<path d="M468.755 44.3355H354.17C351.962 44.3355 350.172 42.5324 350.172 40.3079C350.172 38.0834 351.962 36.2803 354.17 36.2803H468.755C470.963 36.2803 472.753 38.0834 472.753 40.3079C472.753 42.5324 470.963 44.3355 468.755 44.3355Z" fill="#262626"/>
<path d="M347.315 105.119H299.909C297.385 105.119 295.339 103.057 295.339 100.514C295.339 97.9714 297.385 95.9097 299.909 95.9097H347.315C349.838 95.9097 351.885 97.9714 351.885 100.514C351.885 103.057 349.838 105.119 347.315 105.119Z" fill="#525252"/>
<path d="M425.277 105.119H377.871C375.347 105.119 373.301 103.057 373.301 100.514C373.301 97.9714 375.347 95.9097 377.871 95.9097H425.277C427.801 95.9097 429.847 97.9714 429.847 100.514C429.845 103.057 427.801 105.119 425.277 105.119Z" fill="#525252"/>
<path d="M506.807 105.119H459.402C456.878 105.119 454.831 103.057 454.831 100.514C454.831 97.9714 456.878 95.9097 459.402 95.9097H506.807C509.331 95.9097 511.378 97.9714 511.378 100.514C511.378 103.057 509.331 105.119 506.807 105.119Z" fill="#525252"/>
<path d="M584.77 105.119H537.364C534.84 105.119 532.794 103.057 532.794 100.514C532.794 97.9714 534.84 95.9097 537.364 95.9097H584.77C587.293 95.9097 589.34 97.9714 589.34 100.514C589.338 103.057 587.292 105.119 584.77 105.119Z" fill="#525252"/>
<path d="M589.338 71.8993L583.099 59.8527C585.156 57.3171 586.391 54.0816 586.391 50.5513V49.8514C586.391 41.7275 579.855 35.1426 571.792 35.1426H543.752C535.691 35.1426 529.153 41.7275 529.153 49.8514V50.5513C529.153 58.6735 535.689 65.2584 543.752 65.2584H571.792C573.883 65.2584 575.868 64.808 577.667 64.0087L589.338 71.8993Z" fill="#88ACD6"/>
<path d="M572.492 49.4583H540.365C539.715 49.4583 539.188 48.9267 539.188 48.2721C539.188 47.6176 539.715 47.0859 540.365 47.0859H572.492C573.142 47.0859 573.669 47.6176 573.669 48.2721C573.669 48.9267 573.143 49.4583 572.492 49.4583Z" fill="#595959"/>
<path d="M572.492 53.864H540.365C539.715 53.864 539.188 53.3324 539.188 52.6779C539.188 52.0233 539.715 51.4917 540.365 51.4917H572.492C573.142 51.4917 573.669 52.0233 573.669 52.6779C573.669 53.3324 573.143 53.864 572.492 53.864Z" fill="#595959"/>
<path d="M508.166 80.9945L513.569 70.5593C511.789 68.3637 510.717 65.5605 510.717 62.504V61.8982C510.717 54.863 516.377 49.1606 523.359 49.1606H547.644C554.626 49.1606 560.286 54.8648 560.286 61.8982V62.504C560.286 69.5392 554.624 75.2434 547.644 75.2434H523.359C521.548 75.2434 519.828 74.8527 518.272 74.1619L508.166 80.9945Z" fill="#F3A59E"/>
<path d="M551.218 60.0315H519.091C518.441 60.0315 517.913 59.4999 517.913 58.8454C517.913 58.189 518.441 57.6592 519.091 57.6592H551.218C551.867 57.6592 552.395 58.1908 552.395 58.8454C552.395 59.5017 551.867 60.0315 551.218 60.0315Z" fill="#595959"/>
<path d="M548.38 64.4295H519.091C518.441 64.4295 517.913 63.8979 517.913 63.2433C517.913 62.5887 518.441 62.0571 519.091 62.0571H548.38C549.029 62.0571 549.557 62.5887 549.557 63.2433C549.557 63.8979 549.029 64.4295 548.38 64.4295Z" fill="#595959"/>
<path d="M540.08 68.7449H519.091C518.441 68.7449 517.913 68.2133 517.913 67.5587C517.913 66.9041 518.441 66.3726 519.091 66.3726H540.08C540.729 66.3726 541.257 66.9041 541.257 67.5587C541.257 68.2151 540.731 68.7449 540.08 68.7449Z" fill="#595959"/>
<path d="M324.628 56.8935C332.501 53.6279 336.256 44.5504 333.014 36.6184C329.773 28.6863 320.764 24.9035 312.891 28.1691C305.018 31.4347 301.264 40.5122 304.505 48.4442C307.746 56.3762 316.756 60.1591 324.628 56.8935Z" fill="#595959"/>
<path d="M337.643 205.493C351.858 205.493 363.382 193.882 363.382 179.56C363.382 165.238 351.858 153.627 337.643 153.627C323.428 153.627 311.905 165.238 311.905 179.56C311.905 193.882 323.428 205.493 337.643 205.493Z" fill="#F3A59E"/>
<path d="M443.877 205.493C458.092 205.493 469.615 193.882 469.615 179.56C469.615 165.238 458.092 153.627 443.877 153.627C429.662 153.627 418.138 165.238 418.138 179.56C418.138 193.882 429.662 205.493 443.877 205.493Z" fill="#F3A59E"/>
<path d="M549.557 205.493C563.772 205.493 575.296 193.882 575.296 179.56C575.296 165.238 563.772 153.627 549.557 153.627C535.342 153.627 523.819 165.238 523.819 179.56C523.819 193.882 535.342 205.493 549.557 205.493Z" fill="#F3A59E"/>
<path d="M370.946 224.38H307.909C306.608 224.38 305.552 223.317 305.552 222.006C305.552 220.695 306.608 219.632 307.909 219.632H370.946C372.247 219.632 373.303 220.695 373.303 222.006C373.303 223.319 372.247 224.38 370.946 224.38Z" fill="#F3A59E"/>
<path d="M340.036 224.38H307.909C306.608 224.38 305.552 223.317 305.552 222.006C305.552 220.695 306.608 219.632 307.909 219.632H340.036C341.337 219.632 342.393 220.695 342.393 222.006C342.391 223.319 341.337 224.38 340.036 224.38Z" fill="#F3A59E"/>
<path d="M370.946 242.435H307.909C306.608 242.435 305.552 241.372 305.552 240.061C305.552 238.75 306.608 237.687 307.909 237.687H370.946C372.247 237.687 373.303 238.75 373.303 240.061C373.303 241.373 372.247 242.435 370.946 242.435Z" fill="#F3A59E"/>
<path d="M356.814 242.435H322.043C320.741 242.435 319.686 241.372 319.686 240.061C319.686 238.75 320.741 237.687 322.043 237.687H356.814C358.115 237.687 359.171 238.75 359.171 240.061C359.169 241.373 358.115 242.435 356.814 242.435Z" fill="#F3A59E"/>
<path d="M363.879 233.227H314.974C313.673 233.227 312.617 232.164 312.617 230.853C312.617 229.542 313.673 228.479 314.974 228.479H363.879C365.18 228.479 366.236 229.542 366.236 230.853C366.236 232.166 365.18 233.227 363.879 233.227Z" fill="#F3A59E"/>
<path d="M353.671 233.227H325.184C323.883 233.227 322.827 232.164 322.827 230.853C322.827 229.542 323.883 228.479 325.184 228.479H353.671C354.972 228.479 356.027 229.542 356.027 230.853C356.026 232.166 354.972 233.227 353.671 233.227Z" fill="#F3A59E"/>
<path d="M473.858 224.38H410.821C409.52 224.38 408.465 223.317 408.465 222.006C408.465 220.695 409.52 219.632 410.821 219.632H473.858C475.16 219.632 476.215 220.695 476.215 222.006C476.213 223.319 475.16 224.38 473.858 224.38Z" fill="#F3A59E"/>
<path d="M442.947 224.38H410.82C409.518 224.38 408.463 223.317 408.463 222.006C408.463 220.695 409.518 219.632 410.82 219.632H442.947C444.248 219.632 445.304 220.695 445.304 222.006C445.304 223.319 444.248 224.38 442.947 224.38Z" fill="#F3A59E"/>
<path d="M473.858 242.435H410.822C409.52 242.435 408.465 241.372 408.465 240.061C408.465 238.75 409.52 237.687 410.822 237.687H473.858C475.16 237.687 476.215 238.75 476.215 240.061C476.213 241.373 475.16 242.435 473.858 242.435Z" fill="#F3A59E"/>
<path d="M459.725 242.435H424.954C423.652 242.435 422.597 241.372 422.597 240.061C422.597 238.75 423.652 237.687 424.954 237.687H459.725C461.026 237.687 462.081 238.75 462.081 240.061C462.081 241.373 461.026 242.435 459.725 242.435Z" fill="#F3A59E"/>
<path d="M466.792 233.227H417.887C416.585 233.227 415.53 232.164 415.53 230.853C415.53 229.542 416.585 228.479 417.887 228.479H466.792C468.093 228.479 469.148 229.542 469.148 230.853C469.148 232.166 468.093 233.227 466.792 233.227Z" fill="#F3A59E"/>
<path d="M456.582 233.227H428.095C426.794 233.227 425.738 232.164 425.738 230.853C425.738 229.542 426.794 228.479 428.095 228.479H456.582C457.883 228.479 458.938 229.542 458.938 230.853C458.938 232.166 457.883 233.227 456.582 233.227Z" fill="#F3A59E"/>
<path d="M578.555 224.38H515.518C514.217 224.38 513.161 223.317 513.161 222.006C513.161 220.695 514.217 219.632 515.518 219.632H578.555C579.857 219.632 580.912 220.695 580.912 222.006C580.91 223.319 579.855 224.38 578.555 224.38Z" fill="#F3A59E"/>
<path d="M547.644 224.38H515.517C514.215 224.38 513.16 223.317 513.16 222.006C513.16 220.695 514.215 219.632 515.517 219.632H547.644C548.945 219.632 550.001 220.695 550.001 222.006C550.001 223.319 548.945 224.38 547.644 224.38Z" fill="#F3A59E"/>
<path d="M578.555 242.435H515.519C514.217 242.435 513.162 241.372 513.162 240.061C513.162 238.75 514.217 237.687 515.519 237.687H578.555C579.857 237.687 580.912 238.75 580.912 240.061C580.91 241.373 579.855 242.435 578.555 242.435Z" fill="#F3A59E"/>
<path d="M564.422 242.435H529.651C528.349 242.435 527.294 241.372 527.294 240.061C527.294 238.75 528.349 237.687 529.651 237.687H564.422C565.723 237.687 566.778 238.75 566.778 240.061C566.778 241.373 565.723 242.435 564.422 242.435Z" fill="#F3A59E"/>
<path d="M571.489 233.227H522.584C521.282 233.227 520.227 232.164 520.227 230.853C520.227 229.542 521.282 228.479 522.584 228.479H571.489C572.79 228.479 573.845 229.542 573.845 230.853C573.844 232.166 572.79 233.227 571.489 233.227Z" fill="#F3A59E"/>
<path d="M561.279 233.227H532.792C531.49 233.227 530.435 232.164 530.435 230.853C530.435 229.542 531.49 228.479 532.792 228.479H561.279C562.58 228.479 563.635 229.542 563.635 230.853C563.635 232.166 562.58 233.227 561.279 233.227Z" fill="#F3A59E"/>
</g>
<path d="M248.058 215.116C242.497 215.116 237.99 210.575 237.99 204.972V189.643C237.99 184.04 242.497 179.499 248.058 179.499C253.619 179.499 258.126 184.04 258.126 189.643V204.972C258.126 210.575 253.619 215.116 248.058 215.116Z" fill="#8F8F8F"/>
<path d="M651.106 10.9986H233.573C231.769 10.9986 230.306 9.52464 230.306 7.70705C230.306 5.88947 231.769 4.41553 233.573 4.41553H651.104C652.908 4.41553 654.371 5.88947 654.371 7.70705C654.371 9.52464 652.91 10.9986 651.106 10.9986Z" fill="#262626"/>
<path d="M855.274 161.808H722.33H589.385C578.579 161.808 569.819 170.349 569.819 180.886V324.829C569.819 335.366 578.579 343.908 589.385 343.908H720.714H722.33H723.945H855.274C866.08 343.908 874.84 335.366 874.84 324.829V180.886C874.84 170.349 866.08 161.808 855.274 161.808Z" fill="#3E4C57"/>
<path d="M603.931 273.827C600.607 273.827 597.913 271.112 597.913 267.763V202.16C597.913 198.81 600.607 196.096 603.931 196.096C607.256 196.096 609.95 198.81 609.95 202.16V267.763C609.948 271.112 607.254 273.827 603.931 273.827Z" fill="#3D3D3D"/>
<path d="M603.931 273.827C600.607 273.827 597.913 271.112 597.913 267.763V225.512C597.913 222.162 600.607 219.448 603.931 219.448C607.256 219.448 609.95 222.162 609.95 225.512V267.763C609.948 271.112 607.254 273.827 603.931 273.827Z" fill="#3D3D3D"/>
<path d="M603.931 273.827C600.607 273.827 597.913 271.112 597.913 267.763V258.601C597.913 255.251 600.607 252.537 603.931 252.537C607.256 252.537 609.95 255.251 609.95 258.601V267.763C609.948 271.112 607.254 273.827 603.931 273.827Z" fill="#3D3D3D"/>
<path d="M603.931 310.466C600.607 310.466 597.913 307.751 597.913 304.402V295.24C597.913 291.89 600.607 289.176 603.931 289.176C607.256 289.176 609.95 291.89 609.95 295.24V304.402C609.948 307.751 607.254 310.466 603.931 310.466Z" fill="#8F8F8F"/>
<path d="M877.039 365.449H567.622C562.598 365.449 558.523 361.346 558.523 356.284C558.523 351.222 562.596 347.116 567.622 347.116H877.041C882.065 347.116 886.139 351.22 886.139 356.284C886.138 361.346 882.065 365.449 877.039 365.449Z" fill="#D9D9D9"/>
<mask id="mask1_66_1202" style="mask-type:luminance" maskUnits="userSpaceOnUse" x="583" y="175" width="279" height="156">
<path d="M589.386 330.546C585.911 330.546 583.084 327.982 583.084 324.829V180.888C583.084 177.735 585.911 175.171 589.386 175.171H855.276C858.751 175.171 861.577 177.735 861.577 180.888V324.829C861.577 327.982 858.75 330.546 855.276 330.546H589.386Z" fill="white"/>
</mask>
<g mask="url(#mask1_66_1202)">
<path d="M861.6 172.221H583.084V365.449H861.6V172.221Z" fill="white"/>
<path d="M861.6 172.221H583.084V251.31H861.6V172.221Z" fill="#DDDDDD"/>
<path d="M681.436 264.515H625.97V356.567H681.436V264.515Z" fill="#F3A59E"/>
<path d="M818.712 264.515H763.247V356.567H818.712V264.515Z" fill="#F3A59E"/>
<path d="M751.082 264.515H695.616V356.567H751.082V264.515Z" fill="#F3A59E"/>
<path d="M641.321 213.302C649.8 213.302 656.674 206.377 656.674 197.834C656.674 189.291 649.8 182.365 641.321 182.365C632.842 182.365 625.969 189.291 625.969 197.834C625.969 206.377 632.842 213.302 641.321 213.302Z" fill="#73C99D"/>
<path d="M775.372 189.439H664.538C663.091 189.439 661.917 188.256 661.917 186.798C661.917 185.34 663.091 184.158 664.538 184.158H775.372C776.819 184.158 777.992 185.34 777.992 186.798C777.992 188.256 776.819 189.439 775.372 189.439Z" fill="#262626"/>
<path d="M739.658 199.013H664.536C663.089 199.013 661.915 197.83 661.915 196.372C661.915 194.913 663.089 193.732 664.536 193.732H739.658C741.105 193.732 742.279 194.915 742.279 196.372C742.281 197.83 741.107 199.013 739.658 199.013Z" fill="#262626"/>
<path d="M660.043 238.861H628.964C627.309 238.861 625.969 237.51 625.969 235.842C625.969 234.175 627.309 232.824 628.964 232.824H660.043C661.698 232.824 663.039 234.175 663.039 235.842C663.039 237.51 661.698 238.861 660.043 238.861Z" fill="#525252"/>
<path d="M711.156 238.861H680.077C678.422 238.861 677.081 237.51 677.081 235.842C677.081 234.175 678.422 232.824 680.077 232.824H711.156C712.811 232.824 714.152 234.175 714.152 235.842C714.15 237.51 712.809 238.861 711.156 238.861Z" fill="#525252"/>
<path d="M764.607 238.861H733.529C731.874 238.861 730.533 237.51 730.533 235.842C730.533 234.175 731.874 232.824 733.529 232.824H764.607C766.262 232.824 767.603 234.175 767.603 235.842C767.601 237.51 766.26 238.861 764.607 238.861Z" fill="#525252"/>
<path d="M815.718 238.861H784.639C782.984 238.861 781.643 237.51 781.643 235.842C781.643 234.175 782.984 232.824 784.639 232.824H815.718C817.373 232.824 818.714 234.175 818.714 235.842C818.714 237.51 817.373 238.861 815.718 238.861Z" fill="#525252"/>
<path d="M818.714 217.082L814.623 209.184C815.971 207.522 816.782 205.4 816.782 203.086V202.628C816.782 197.302 812.498 192.985 807.211 192.985H788.829C783.543 192.985 779.258 197.302 779.258 202.628V203.086C779.258 208.412 783.543 212.729 788.829 212.729H807.211C808.583 212.729 809.884 212.434 811.064 211.909L818.714 217.082Z" fill="#88ACD6"/>
<path d="M807.669 202.369H786.607C786.179 202.369 785.835 202.02 785.835 201.591C785.835 201.161 786.181 200.814 786.607 200.814H807.669C808.096 200.814 808.441 201.163 808.441 201.591C808.441 202.022 808.096 202.369 807.669 202.369Z" fill="#595959"/>
<path d="M807.669 205.259H786.607C786.179 205.259 785.835 204.91 785.835 204.482C785.835 204.051 786.181 203.704 786.607 203.704H807.669C808.096 203.704 808.441 204.053 808.441 204.482C808.441 204.91 808.096 205.259 807.669 205.259Z" fill="#595959"/>
<path d="M765.497 223.045L769.039 216.205C767.872 214.765 767.169 212.928 767.169 210.924V210.528C767.169 205.916 770.879 202.176 775.458 202.176H791.38C795.957 202.176 799.669 205.914 799.669 210.528V210.924C799.669 215.535 795.959 219.276 791.38 219.276H775.458C774.271 219.276 773.144 219.019 772.123 218.567L765.497 223.045Z" fill="#F3A59E"/>
<path d="M793.722 209.303H772.66C772.232 209.303 771.888 208.954 771.888 208.526C771.888 208.095 772.234 207.748 772.66 207.748H793.722C794.149 207.748 794.494 208.097 794.494 208.526C794.494 208.954 794.147 209.303 793.722 209.303Z" fill="#595959"/>
<path d="M791.861 212.186H772.66C772.232 212.186 771.888 211.837 771.888 211.408C771.888 210.978 772.234 210.631 772.66 210.631H791.861C792.288 210.631 792.633 210.98 792.633 211.408C792.633 211.837 792.288 212.186 791.861 212.186Z" fill="#595959"/>
<path d="M786.42 215.015H772.66C772.232 215.015 771.888 214.666 771.888 214.237C771.888 213.807 772.234 213.459 772.66 213.459H786.42C786.847 213.459 787.192 213.808 787.192 214.237C787.192 214.666 786.845 215.015 786.42 215.015Z" fill="#595959"/>
<path d="M641.321 208.016C646.902 208.016 651.427 203.457 651.427 197.834C651.427 192.211 646.902 187.652 641.321 187.652C635.74 187.652 631.215 192.211 631.215 197.834C631.215 203.457 635.74 208.016 641.321 208.016Z" fill="#595959"/>
<path d="M653.703 304.666C663.023 304.666 670.578 297.054 670.578 287.664C670.578 278.274 663.023 270.662 653.703 270.662C644.383 270.662 636.828 278.274 636.828 287.664C636.828 297.054 644.383 304.666 653.703 304.666Z" fill="#F3A59E"/>
<path d="M723.349 304.666C732.669 304.666 740.224 297.054 740.224 287.664C740.224 278.274 732.669 270.662 723.349 270.662C714.029 270.662 706.474 278.274 706.474 287.664C706.474 297.054 714.029 304.666 723.349 304.666Z" fill="#F3A59E"/>
<path d="M792.632 304.666C801.952 304.666 809.507 297.054 809.507 287.664C809.507 278.274 801.952 270.662 792.632 270.662C783.313 270.662 775.758 278.274 775.758 287.664C775.758 297.054 783.313 304.666 792.632 304.666Z" fill="#F3A59E"/>
<path d="M675.536 317.048H634.209C633.357 317.048 632.664 316.352 632.664 315.492C632.664 314.633 633.355 313.937 634.209 313.937H675.536C676.388 313.937 677.079 314.633 677.079 315.492C677.081 316.352 676.388 317.048 675.536 317.048Z" fill="#F3A59E"/>
<path d="M655.272 317.048H634.209C633.357 317.048 632.664 316.352 632.664 315.492C632.664 314.633 633.355 313.937 634.209 313.937H655.272C656.125 313.937 656.817 314.633 656.817 315.492C656.816 316.352 656.125 317.048 655.272 317.048Z" fill="#F3A59E"/>
<path d="M675.536 328.885H634.209C633.357 328.885 632.664 328.189 632.664 327.33C632.664 326.471 633.355 325.773 634.209 325.773H675.536C676.388 325.773 677.079 326.47 677.079 327.33C677.081 328.189 676.388 328.885 675.536 328.885Z" fill="#F3A59E"/>
<path d="M666.27 328.885H643.473C642.621 328.885 641.928 328.189 641.928 327.33C641.928 326.471 642.619 325.773 643.473 325.773H666.27C667.123 325.773 667.815 326.47 667.815 327.33C667.815 328.189 667.124 328.885 666.27 328.885Z" fill="#F3A59E"/>
<path d="M670.903 322.848H638.84C637.988 322.848 637.295 322.152 637.295 321.293C637.295 320.434 637.986 319.736 638.84 319.736H670.903C671.755 319.736 672.446 320.432 672.446 321.293C672.448 322.152 671.757 322.848 670.903 322.848Z" fill="#F3A59E"/>
<path d="M664.211 322.848H645.536C644.683 322.848 643.99 322.152 643.99 321.293C643.99 320.434 644.681 319.736 645.536 319.736H664.211C665.064 319.736 665.756 320.432 665.756 321.293C665.755 322.152 665.064 322.848 664.211 322.848Z" fill="#F3A59E"/>
<path d="M743.004 317.048H701.678C700.825 317.048 700.133 316.352 700.133 315.492C700.133 314.633 700.824 313.937 701.678 313.937H743.004C743.857 313.937 744.55 314.633 744.55 315.492C744.55 316.352 743.859 317.048 743.004 317.048Z" fill="#F3A59E"/>
<path d="M722.741 317.048H701.678C700.825 317.048 700.133 316.352 700.133 315.492C700.133 314.633 700.824 313.937 701.678 313.937H722.741C723.593 313.937 724.286 314.633 724.286 315.492C724.284 316.352 723.593 317.048 722.741 317.048Z" fill="#F3A59E"/>
<path d="M743.004 328.885H701.678C700.825 328.885 700.133 328.189 700.133 327.33C700.133 326.471 700.824 325.773 701.678 325.773H743.004C743.857 325.773 744.55 326.47 744.55 327.33C744.55 328.189 743.859 328.885 743.004 328.885Z" fill="#F3A59E"/>
<path d="M733.74 328.885H710.944C710.091 328.885 709.4 328.189 709.4 327.33C709.4 326.471 710.091 325.773 710.944 325.773H733.74C734.593 325.773 735.286 326.47 735.286 327.33C735.284 328.189 734.593 328.885 733.74 328.885Z" fill="#F3A59E"/>
<path d="M738.371 322.848H706.309C705.457 322.848 704.764 322.152 704.764 321.293C704.764 320.434 705.455 319.736 706.309 319.736H738.371C739.224 319.736 739.917 320.432 739.917 321.293C739.917 322.152 739.226 322.848 738.371 322.848Z" fill="#F3A59E"/>
<path d="M731.68 322.848H713.005C712.152 322.848 711.459 322.152 711.459 321.293C711.459 320.434 712.15 319.736 713.005 319.736H731.68C732.532 319.736 733.225 320.432 733.225 321.293C733.223 322.152 732.532 322.848 731.68 322.848Z" fill="#F3A59E"/>
<path d="M811.643 317.048H770.317C769.464 317.048 768.772 316.352 768.772 315.492C768.772 314.633 769.463 313.937 770.317 313.937H811.643C812.496 313.937 813.189 314.633 813.189 315.492C813.189 316.352 812.496 317.048 811.643 317.048Z" fill="#F3A59E"/>
<path d="M791.38 317.048H770.317C769.464 317.048 768.772 316.352 768.772 315.492C768.772 314.633 769.463 313.937 770.317 313.937H791.38C792.232 313.937 792.925 314.633 792.925 315.492C792.923 316.352 792.232 317.048 791.38 317.048Z" fill="#F3A59E"/>
<path d="M811.643 328.885H770.317C769.464 328.885 768.772 328.189 768.772 327.33C768.772 326.471 769.463 325.773 770.317 325.773H811.643C812.496 325.773 813.189 326.47 813.189 327.33C813.189 328.189 812.496 328.885 811.643 328.885Z" fill="#F3A59E"/>
<path d="M802.378 328.885H779.581C778.728 328.885 778.036 328.189 778.036 327.33C778.036 326.471 778.727 325.773 779.581 325.773H802.378C803.23 325.773 803.923 326.47 803.923 327.33C803.923 328.189 803.232 328.885 802.378 328.885Z" fill="#F3A59E"/>
<path d="M807.01 322.848H774.948C774.096 322.848 773.403 322.152 773.403 321.293C773.403 320.434 774.094 319.736 774.948 319.736H807.01C807.863 319.736 808.554 320.432 808.554 321.293C808.556 322.152 807.865 322.848 807.01 322.848Z" fill="#F3A59E"/>
<path d="M800.319 322.848H781.642C780.789 322.848 780.098 322.152 780.098 321.293C780.098 320.434 780.789 319.736 781.642 319.736H800.317C801.169 319.736 801.862 320.432 801.862 321.293C801.862 322.152 801.171 322.848 800.319 322.848Z" fill="#F3A59E"/>
</g>
<path d="M852.392 172.051H592.269C590.465 172.051 589.002 170.577 589.002 168.76C589.002 166.942 590.465 165.468 592.269 165.468H852.39C854.194 165.468 855.657 166.942 855.657 168.76C855.657 170.577 854.196 172.051 852.392 172.051Z" fill="#262626"/>
<path d="M852.392 340.768H592.269C590.465 340.768 589.002 339.294 589.002 337.477C589.002 335.659 590.465 334.185 592.269 334.185H852.39C854.194 334.185 855.657 335.659 855.657 337.477C855.657 339.294 854.196 340.768 852.392 340.768Z" fill="#262626"/>
<path d="M596.091 271.036C592.176 271.036 589.004 267.839 589.004 263.896V214.14C589.004 210.197 592.176 207 596.091 207C600.004 207 603.177 210.197 603.177 214.14V263.896C603.177 267.839 600.006 271.036 596.091 271.036Z" fill="#3D3D3D"/>
<path d="M596.091 271.036C592.176 271.036 589.004 267.839 589.004 263.896V253.104C589.004 249.162 592.176 245.964 596.091 245.964C600.004 245.964 603.177 249.162 603.177 253.104V263.896C603.177 267.839 600.006 271.036 596.091 271.036Z" fill="#3D3D3D"/>
<path d="M596.091 314.184C592.176 314.184 589.004 310.987 589.004 307.044V296.254C589.004 292.31 592.176 289.114 596.091 289.114C600.004 289.114 603.177 292.312 603.177 296.254V307.044C603.177 310.987 600.006 314.184 596.091 314.184Z" fill="#8F8F8F"/>
<path d="M178.107 116.44V349.454C178.107 359.378 170.123 367.424 160.272 367.424H17.8351C7.98595 367.424 -1.90735e-06 359.378 -1.90735e-06 349.454V116.44C-1.90735e-06 106.515 7.98595 98.4707 17.8351 98.4707H160.272C170.123 98.4707 178.107 106.517 178.107 116.44Z" fill="#3E4C57"/>
<mask id="mask2_66_1202" style="mask-type:luminance" maskUnits="userSpaceOnUse" x="13" y="114" width="152" height="238">
<path d="M161.855 114.485H16.2519C14.9506 114.485 13.8951 115.549 13.8951 116.86V349.035C13.8951 350.346 14.9506 351.409 16.2519 351.409H161.857C163.158 351.409 164.214 350.346 164.214 349.035V116.86C164.214 115.549 163.158 114.485 161.855 114.485Z" fill="white"/>
</mask>
<g mask="url(#mask2_66_1202)">
<path d="M185.208 111.575H-7.10102V354.735H185.208V111.575Z" fill="white"/>
<path d="M185.208 111.575H-7.10102V166.184H185.208V111.575Z" fill="#DDDDDD"/>
<path d="M60.8092 175.303H22.5111V238.864H60.8092V175.303Z" fill="#F3A59E"/>
<path d="M155.596 175.303H117.298V238.864H155.596V175.303Z" fill="#F3A59E"/>
<path d="M108.897 175.303H70.5991V238.864H108.897V175.303Z" fill="#F3A59E"/>
<path d="M43.7118 129.259C43.7118 135.157 38.9659 139.938 33.1106 139.938C27.2571 139.938 22.5111 135.157 22.5111 129.259C22.5111 123.359 27.2571 118.578 33.1106 118.578C38.9659 118.579 43.7118 123.361 43.7118 129.259Z" fill="#73C99D"/>
<path d="M125.67 123.464H49.1417C48.1419 123.464 47.3323 122.648 47.3323 121.641C47.3323 120.634 48.1419 119.818 49.1417 119.818H125.67C126.67 119.818 127.479 120.634 127.479 121.641C127.479 122.646 126.67 123.464 125.67 123.464Z" fill="#262626"/>
<path d="M101.012 130.074H49.1417C48.1419 130.074 47.3323 129.259 47.3323 128.251C47.3323 127.244 48.1419 126.429 49.1417 126.429H101.012C102.012 126.429 102.821 127.244 102.821 128.251C102.821 129.257 102.01 130.074 101.012 130.074Z" fill="#262626"/>
<path d="M46.0382 157.587H24.5789C23.4373 157.587 22.5111 156.654 22.5111 155.504C22.5111 154.354 23.4373 153.421 24.5789 153.421H46.0382C47.1798 153.421 48.106 154.354 48.106 155.504C48.106 156.654 47.1816 157.587 46.0382 157.587Z" fill="#525252"/>
<path d="M81.3296 157.587H59.8704C58.7288 157.587 57.8026 156.654 57.8026 155.504C57.8026 154.354 58.7288 153.421 59.8704 153.421H81.3296C82.4713 153.421 83.3975 154.354 83.3975 155.504C83.3975 156.654 82.4713 157.587 81.3296 157.587Z" fill="#525252"/>
<path d="M118.237 157.587H96.7774C95.6358 157.587 94.7096 156.654 94.7096 155.504C94.7096 154.354 95.6358 153.421 96.7774 153.421H118.237C119.378 153.421 120.304 154.354 120.304 155.504C120.304 156.654 119.378 157.587 118.237 157.587Z" fill="#525252"/>
<path d="M153.528 157.587H132.069C130.927 157.587 130.001 156.654 130.001 155.504C130.001 154.354 130.927 153.421 132.069 153.421H153.528C154.67 153.421 155.596 154.354 155.596 155.504C155.596 156.654 154.67 157.587 153.528 157.587Z" fill="#525252"/>
<path d="M155.596 142.552L152.772 137.097C153.704 135.95 154.262 134.484 154.262 132.887V132.57C154.262 128.894 151.304 125.913 147.655 125.913H134.962C131.313 125.913 128.355 128.894 128.355 132.57V132.887C128.355 136.564 131.313 139.544 134.962 139.544H147.655C148.603 139.544 149.5 139.34 150.315 138.978L155.596 142.552Z" fill="#88ACD6"/>
<path d="M147.971 132.394H133.428C133.133 132.394 132.895 132.153 132.895 131.856C132.895 131.56 133.133 131.319 133.428 131.319H147.971C148.265 131.319 148.504 131.56 148.504 131.856C148.504 132.153 148.265 132.394 147.971 132.394Z" fill="#595959"/>
<path d="M147.971 134.388H133.428C133.133 134.388 132.895 134.148 132.895 133.851C132.895 133.554 133.133 133.313 133.428 133.313H147.971C148.265 133.313 148.504 133.554 148.504 133.851C148.504 134.148 148.265 134.388 147.971 134.388Z" fill="#595959"/>
<path d="M118.852 146.668L121.299 141.944C120.493 140.951 120.008 139.681 120.008 138.298V138.023C120.008 134.838 122.572 132.257 125.731 132.257H136.723C139.884 132.257 142.446 134.84 142.446 138.023V138.298C142.446 141.483 139.883 144.063 136.723 144.063H125.731C124.91 144.063 124.133 143.886 123.428 143.573L118.852 146.668Z" fill="#F3A59E"/>
<path d="M138.339 137.179H123.796C123.501 137.179 123.263 136.938 123.263 136.641C123.263 136.345 123.501 136.104 123.796 136.104H138.339C138.633 136.104 138.872 136.345 138.872 136.641C138.872 136.938 138.633 137.179 138.339 137.179Z" fill="#595959"/>
<path d="M137.055 139.17H123.798C123.503 139.17 123.264 138.929 123.264 138.633C123.264 138.336 123.503 138.095 123.798 138.095H137.055C137.35 138.095 137.589 138.336 137.589 138.633C137.589 138.929 137.35 139.17 137.055 139.17Z" fill="#595959"/>
<path d="M133.298 141.123H123.798C123.503 141.123 123.264 140.883 123.264 140.586C123.264 140.289 123.503 140.048 123.798 140.048H133.298C133.593 140.048 133.832 140.289 133.832 140.586C133.832 140.883 133.593 141.123 133.298 141.123Z" fill="#595959"/>
<path d="M40.0895 129.259C40.0895 133.142 36.9644 136.289 33.1106 136.289C29.2567 136.289 26.1334 133.142 26.1334 129.259C26.1334 125.376 29.2585 122.228 33.1106 122.228C36.9644 122.229 40.0895 125.376 40.0895 129.259Z" fill="#595959"/>
<path d="M53.3115 191.287C53.3115 197.77 48.0952 203.026 41.6602 203.026C35.2251 203.026 30.0088 197.77 30.0088 191.287C30.0088 184.803 35.2251 179.547 41.6602 179.547C48.0952 179.547 53.3115 184.803 53.3115 191.287Z" fill="#DBDBDB"/>
<path d="M101.4 191.287C101.4 197.77 96.1833 203.026 89.7482 203.026C83.3131 203.026 78.0969 197.77 78.0969 191.287C78.0969 184.803 83.3131 179.547 89.7482 179.547C96.1833 179.547 101.4 184.803 101.4 191.287Z" fill="#DBDBDB"/>
<path d="M149.24 191.287C149.24 197.77 144.024 203.026 137.589 203.026C131.153 203.026 125.937 197.77 125.937 191.287C125.937 184.803 131.153 179.547 137.589 179.547C144.024 179.547 149.24 184.803 149.24 191.287Z" fill="#DBDBDB"/>
<path d="M185.208 246.253H-7.10102V251.231H185.208V246.253Z" fill="#DBDBDB"/>
<path d="M78.0987 269.363H22.5111V324.008H78.0987V269.363Z" fill="#DBDBDB"/>
<path d="M153.442 273.704H88.5994C87.4093 273.704 86.4454 272.733 86.4454 271.535C86.4454 270.336 87.4093 269.365 88.5994 269.365H153.442C154.632 269.365 155.596 270.336 155.596 271.535C155.596 272.733 154.632 273.704 153.442 273.704Z" fill="#DBDBDB"/>
<path d="M153.442 281.237H88.5994C87.4093 281.237 86.4454 280.266 86.4454 279.067C86.4454 277.868 87.4093 276.897 88.5994 276.897H153.442C154.632 276.897 155.596 277.868 155.596 279.067C155.596 280.266 154.632 281.237 153.442 281.237Z" fill="#DBDBDB"/>
<path d="M153.442 296.685H88.5994C87.4093 296.685 86.4454 295.714 86.4454 294.516C86.4454 293.317 87.4093 292.346 88.5994 292.346H153.442C154.632 292.346 155.596 293.317 155.596 294.516C155.596 295.714 154.632 296.685 153.442 296.685Z" fill="#DBDBDB"/>
<path d="M140.408 307.922H88.4845C87.3591 307.922 86.4454 307.002 86.4454 305.868V305.635C86.4454 304.501 87.3573 303.581 88.4845 303.581H140.408C141.534 303.581 142.448 304.499 142.448 305.635V305.868C142.446 307.002 141.534 307.922 140.408 307.922Z" fill="#DBDBDB"/>
<path d="M153.442 288.77H88.5994C87.4093 288.77 86.4454 287.799 86.4454 286.6C86.4454 285.401 87.4093 284.43 88.5994 284.43H153.442C154.632 284.43 155.596 285.401 155.596 286.6C155.596 287.799 154.632 288.77 153.442 288.77Z" fill="#DBDBDB"/>
<path d="M152.505 314.793H89.5346C87.8276 314.793 86.4436 316.188 86.4436 317.908V320.895C86.4436 322.615 87.8276 324.01 89.5346 324.01H152.505C154.212 324.01 155.596 322.615 155.596 320.895V317.908C155.596 316.188 154.212 314.793 152.505 314.793Z" fill="#73C99D"/>
</g>
<path d="M160.728 110.883H17.3792C15.4549 110.883 13.8933 109.311 13.8933 107.371C13.8933 105.432 15.4532 103.858 17.3792 103.858H160.728C162.652 103.858 164.214 105.43 164.214 107.371C164.214 109.311 162.652 110.883 160.728 110.883Z" fill="#0D0D0D"/>
<path d="M160.728 362.709H17.3792C15.4549 362.709 13.8933 361.137 13.8933 359.197C13.8933 357.258 15.4532 355.685 17.3792 355.685H160.728C162.652 355.685 164.214 357.256 164.214 359.197C164.214 361.137 162.652 362.709 160.728 362.709Z" fill="#0D0D0D"/>
<path d="M192.977 258.215C193.955 258.215 194.747 257.418 194.747 256.432V243.76C194.747 242.776 193.955 241.977 192.977 241.977C191.999 241.977 191.207 242.774 191.207 243.76V256.432C191.207 257.418 192 258.215 192.977 258.215Z" fill="#38454F"/>
<path d="M192.79 277.071C193.768 277.071 194.56 276.273 194.56 275.288V267.081C194.56 266.095 193.768 265.297 192.79 265.297C191.812 265.297 191.02 266.095 191.02 267.081V275.288C191.02 276.272 191.812 277.071 192.79 277.071Z" fill="#38454F"/>
<path d="M201.871 367.174H274.538C279.553 367.174 283.619 363.078 283.619 358.025V202.617C283.619 197.564 279.553 193.468 274.538 193.468H201.871C196.856 193.468 192.79 197.564 192.79 202.617V358.027C192.79 363.078 196.856 367.174 201.871 367.174Z" fill="#3E4C57"/>
<path d="M246.73 202.497H229.679C228.703 202.497 227.909 201.699 227.909 200.714C227.909 199.73 228.701 198.931 229.679 198.931H246.73C247.708 198.931 248.5 199.729 248.5 200.714C248.498 201.698 247.706 202.497 246.73 202.497Z" fill="#BFBFBF"/>
<path d="M271.833 363.613H201.277C199.827 363.613 198.651 362.429 198.651 360.966V360.765C198.651 359.304 199.827 358.117 201.277 358.117H271.833C273.283 358.117 274.461 359.302 274.461 360.765V360.966C274.461 362.429 273.285 363.613 271.833 363.613Z" fill="#0D0D0D"/>
<path d="M249.753 363.613H201.277C199.827 363.613 198.651 362.429 198.651 360.966V360.765C198.651 359.304 199.827 358.117 201.277 358.117H249.753C251.203 358.117 252.379 359.302 252.379 360.765V360.966C252.379 362.429 251.203 363.613 249.753 363.613Z" fill="#0D0D0D"/>
<path d="M222.973 203.06H201.376C199.87 203.06 198.649 201.83 198.649 200.313C198.649 198.796 199.87 197.566 201.376 197.566H222.973C224.479 197.566 225.7 198.796 225.7 200.313C225.7 201.83 224.479 203.06 222.973 203.06Z" fill="#0D0D0D"/>
<path d="M278.869 265.632C278.439 265.632 278.008 265.471 277.674 265.147C267.688 255.465 275.8 246.076 275.884 245.982C276.518 245.268 277.608 245.205 278.318 245.845C279.027 246.483 279.09 247.577 278.458 248.294C277.834 249.013 272.639 255.445 280.063 262.644C280.749 263.31 280.77 264.41 280.11 265.1C279.774 265.453 279.322 265.632 278.869 265.632Z" fill="#333333"/>
<path d="M238.204 214.476C257.903 214.476 273.872 213.27 273.872 211.783C273.872 210.295 257.903 209.09 238.204 209.09C218.505 209.09 202.535 210.295 202.535 211.783C202.535 213.27 218.505 214.476 238.204 214.476Z" fill="#4D4D4D"/>
<mask id="mask3_66_1202" style="mask-type:luminance" maskUnits="userSpaceOnUse" x="196" y="206" width="85" height="150">
<path d="M275.701 206.164H200.704C198.313 206.164 196.377 208.115 196.377 210.524V351.57C196.377 353.979 198.313 355.931 200.704 355.931H275.699C278.09 355.931 280.027 353.979 280.027 351.57V210.524C280.029 208.117 278.092 206.164 275.701 206.164Z" fill="white"/>
</mask>
<g mask="url(#mask3_66_1202)">
<path d="M289.855 206.021H186.554V356.075H289.855V206.021Z" fill="white"/>
<path d="M230.695 328.873H200.782V353.314H230.695V328.873Z" fill="#E6E6E6"/>
<path d="M289.855 206.021H186.554V235.355H289.855V206.021Z" fill="#DDDDDD"/>
<path d="M213.847 215.519C213.847 218.687 211.298 221.256 208.154 221.256C205.009 221.256 202.46 218.687 202.46 215.519C202.46 212.35 205.009 209.782 208.154 209.782C211.298 209.782 213.847 212.35 213.847 215.519Z" fill="#73C99D"/>
<path d="M257.872 212.406H216.764C216.228 212.406 215.791 211.966 215.791 211.426C215.791 210.885 216.228 210.446 216.764 210.446H257.872C258.408 210.446 258.844 210.885 258.844 211.426C258.844 211.966 258.41 212.406 257.872 212.406Z" fill="#262626"/>
<path d="M244.626 215.956H216.764C216.228 215.956 215.791 215.517 215.791 214.976C215.791 214.435 216.228 213.996 216.764 213.996H244.626C245.163 213.996 245.599 214.434 245.599 214.976C245.599 215.519 245.163 215.956 244.626 215.956Z" fill="#262626"/>
<path d="M215.098 230.736H203.571C202.957 230.736 202.46 230.235 202.46 229.616C202.46 228.998 202.957 228.497 203.571 228.497H215.098C215.712 228.497 216.21 228.998 216.21 229.616C216.21 230.235 215.712 230.736 215.098 230.736Z" fill="#525252"/>
<path d="M234.055 230.736H222.528C221.914 230.736 221.417 230.235 221.417 229.616C221.417 228.998 221.914 228.497 222.528 228.497H234.055C234.669 228.497 235.167 228.998 235.167 229.616C235.167 230.235 234.668 230.736 234.055 230.736Z" fill="#525252"/>
<path d="M253.879 230.736H242.352C241.738 230.736 241.241 230.235 241.241 229.616C241.241 228.998 241.738 228.497 242.352 228.497H253.879C254.493 228.497 254.991 228.998 254.991 229.616C254.991 230.235 254.493 230.736 253.879 230.736Z" fill="#525252"/>
<path d="M272.836 230.736H261.309C260.695 230.736 260.198 230.235 260.198 229.616C260.198 228.998 260.695 228.497 261.309 228.497H272.836C273.45 228.497 273.948 228.998 273.948 229.616C273.948 230.235 273.45 230.736 272.836 230.736Z" fill="#525252"/>
<path d="M273.948 222.659L272.431 219.729C272.932 219.112 273.231 218.326 273.231 217.467V217.297C273.231 215.322 271.643 213.721 269.683 213.721H262.865C260.905 213.721 259.316 215.322 259.316 217.297V217.467C259.316 219.442 260.905 221.042 262.865 221.042H269.683C270.191 221.042 270.673 220.932 271.111 220.738L273.948 222.659Z" fill="#88ACD6"/>
<path d="M269.851 217.203H262.039C261.882 217.203 261.752 217.073 261.752 216.914C261.752 216.754 261.882 216.624 262.039 216.624H269.851C270.009 216.624 270.139 216.754 270.139 216.914C270.139 217.073 270.009 217.203 269.851 217.203Z" fill="#595959"/>
<path d="M269.851 218.273H262.039C261.882 218.273 261.752 218.145 261.752 217.984C261.752 217.825 261.882 217.694 262.039 217.694H269.851C270.009 217.694 270.139 217.823 270.139 217.984C270.139 218.145 270.009 218.273 269.851 218.273Z" fill="#595959"/>
<path d="M254.21 224.871L255.524 222.334C255.091 221.8 254.831 221.118 254.831 220.375V220.228C254.831 218.518 256.208 217.13 257.906 217.13H263.811C265.509 217.13 266.886 218.518 266.886 220.228V220.375C266.886 222.086 265.509 223.473 263.811 223.473H257.906C257.466 223.473 257.048 223.379 256.669 223.211L254.21 224.871Z" fill="#F3A59E"/>
<path d="M264.678 219.772H256.866C256.708 219.772 256.579 219.644 256.579 219.483C256.579 219.324 256.708 219.193 256.866 219.193H264.678C264.836 219.193 264.965 219.322 264.965 219.483C264.964 219.644 264.836 219.772 264.678 219.772Z" fill="#595959"/>
<path d="M263.987 220.844H256.864C256.707 220.844 256.577 220.715 256.577 220.554C256.577 220.395 256.707 220.265 256.864 220.265H263.987C264.145 220.265 264.274 220.393 264.274 220.554C264.274 220.713 264.147 220.844 263.987 220.844Z" fill="#595959"/>
<path d="M261.969 221.893H256.866C256.708 221.893 256.579 221.764 256.579 221.603C256.579 221.444 256.708 221.313 256.866 221.313H261.969C262.127 221.313 262.257 221.442 262.257 221.603C262.257 221.764 262.127 221.893 261.969 221.893Z" fill="#595959"/>
<path d="M208.154 219.295C210.224 219.295 211.902 217.604 211.902 215.519C211.902 213.433 210.224 211.743 208.154 211.743C206.084 211.743 204.406 213.433 204.406 215.519C204.406 217.604 206.084 219.295 208.154 219.295Z" fill="#595959"/>
<path d="M212.088 262.814C206.411 262.814 201.808 258.177 201.808 252.457C201.808 246.736 206.411 242.099 212.088 242.099C217.766 242.099 222.368 246.736 222.368 252.457C222.37 258.175 217.766 262.814 212.088 262.814Z" fill="#F3A59E"/>
<path d="M212.088 259.409C215.9 259.409 218.99 256.295 218.99 252.455C218.99 248.614 215.9 245.501 212.088 245.501C208.276 245.501 205.186 248.614 205.186 252.455C205.186 256.295 208.276 259.409 212.088 259.409Z" fill="#F3A59E"/>
<path d="M273.755 246.298H231.038C230.571 246.298 230.193 245.917 230.193 245.446C230.193 244.976 230.571 244.595 231.038 244.595H273.755C274.222 244.595 274.601 244.976 274.601 245.446C274.599 245.918 274.222 246.298 273.755 246.298Z" fill="#E6E6E6"/>
<path d="M273.755 253.299H231.038C230.571 253.299 230.193 252.917 230.193 252.447C230.193 251.977 230.571 251.596 231.038 251.596H273.755C274.222 251.596 274.601 251.977 274.601 252.447C274.599 252.917 274.222 253.299 273.755 253.299Z" fill="#E6E6E6"/>
<path d="M273.755 256.909H231.038C230.571 256.909 230.193 256.527 230.193 256.057C230.193 255.587 230.571 255.206 231.038 255.206H273.755C274.222 255.206 274.601 255.587 274.601 256.057C274.599 256.527 274.222 256.909 273.755 256.909Z" fill="#E6E6E6"/>
<path d="M273.755 260.314H231.038C230.571 260.314 230.193 259.933 230.193 259.463C230.193 258.992 230.571 258.611 231.038 258.611H273.755C274.222 258.611 274.601 258.992 274.601 259.463C274.599 259.933 274.222 260.314 273.755 260.314Z" fill="#E6E6E6"/>
<path d="M273.755 249.703H231.038C230.571 249.703 230.193 249.322 230.193 248.852C230.193 248.382 230.571 248 231.038 248H273.755C274.222 248 274.601 248.382 274.601 248.852C274.599 249.322 274.222 249.703 273.755 249.703Z" fill="#E6E6E6"/>
<path d="M212.088 288.11C206.411 288.11 201.808 283.473 201.808 277.753C201.808 272.032 206.411 267.395 212.088 267.395C217.766 267.395 222.368 272.032 222.368 277.753C222.37 283.473 217.766 288.11 212.088 288.11Z" fill="#F3A59E"/>
<path d="M212.088 284.706C215.9 284.706 218.99 281.593 218.99 277.753C218.99 273.912 215.9 270.799 212.088 270.799C208.276 270.799 205.186 273.912 205.186 277.753C205.186 281.593 208.276 284.706 212.088 284.706Z" fill="#F3A59E"/>
<path d="M273.289 271.596H230.571C230.105 271.596 229.726 271.214 229.726 270.744C229.726 270.274 230.105 269.893 230.571 269.893H273.289C273.755 269.893 274.134 270.274 274.134 270.744C274.134 271.214 273.755 271.596 273.289 271.596Z" fill="#E6E6E6"/>
<path d="M273.289 278.597H230.571C230.105 278.597 229.726 278.215 229.726 277.745C229.726 277.275 230.105 276.894 230.571 276.894H273.289C273.755 276.894 274.134 277.275 274.134 277.745C274.134 278.215 273.755 278.597 273.289 278.597Z" fill="#E6E6E6"/>
<path d="M273.289 282.205H230.571C230.105 282.205 229.726 281.823 229.726 281.353C229.726 280.883 230.105 280.501 230.571 280.501H273.289C273.755 280.501 274.134 280.883 274.134 281.353C274.134 281.825 273.755 282.205 273.289 282.205Z" fill="#E6E6E6"/>
<path d="M273.289 285.61H230.571C230.105 285.61 229.726 285.229 229.726 284.758C229.726 284.288 230.105 283.907 230.571 283.907H273.289C273.755 283.907 274.134 284.288 274.134 284.758C274.134 285.229 273.755 285.61 273.289 285.61Z" fill="#E6E6E6"/>
<path d="M273.289 275.001H230.571C230.105 275.001 229.726 274.62 229.726 274.15C229.726 273.679 230.105 273.298 230.571 273.298H273.289C273.755 273.298 274.134 273.679 274.134 274.15C274.134 274.62 273.755 275.001 273.289 275.001Z" fill="#E6E6E6"/>
<path d="M212.088 315.361C206.411 315.361 201.808 310.724 201.808 305.004C201.808 299.283 206.411 294.646 212.088 294.646C217.766 294.646 222.368 299.283 222.368 305.004C222.37 310.724 217.766 315.361 212.088 315.361Z" fill="#F3A59E"/>
<path d="M212.088 311.957C215.9 311.957 218.99 308.844 218.99 305.004C218.99 301.163 215.9 298.05 212.088 298.05C208.276 298.05 205.186 301.163 205.186 305.004C205.186 308.844 208.276 311.957 212.088 311.957Z" fill="#F3A59E"/>
<path d="M273.755 298.847H231.038C230.571 298.847 230.193 298.466 230.193 297.996C230.193 297.526 230.571 297.144 231.038 297.144H273.755C274.222 297.144 274.601 297.526 274.601 297.996C274.599 298.466 274.222 298.847 273.755 298.847Z" fill="#E6E6E6"/>
<path d="M273.755 305.846H231.038C230.571 305.846 230.193 305.465 230.193 304.995C230.193 304.525 230.571 304.143 231.038 304.143H273.755C274.222 304.143 274.601 304.525 274.601 304.995C274.599 305.467 274.222 305.846 273.755 305.846Z" fill="#E6E6E6"/>
<path d="M273.755 309.456H231.038C230.571 309.456 230.193 309.075 230.193 308.605C230.193 308.134 230.571 307.753 231.038 307.753H273.755C274.222 307.753 274.601 308.134 274.601 308.605C274.599 309.077 274.222 309.456 273.755 309.456Z" fill="#E6E6E6"/>
<path d="M273.755 312.862H231.038C230.571 312.862 230.193 312.48 230.193 312.01C230.193 311.54 230.571 311.158 231.038 311.158H273.755C274.222 311.158 274.601 311.54 274.601 312.01C274.599 312.48 274.222 312.862 273.755 312.862Z" fill="#E6E6E6"/>
<path d="M273.755 302.251H231.038C230.571 302.251 230.193 301.87 230.193 301.4C230.193 300.929 230.571 300.548 231.038 300.548H273.755C274.222 300.548 274.601 300.929 274.601 301.4C274.599 301.871 274.222 302.251 273.755 302.251Z" fill="#E6E6E6"/>
<path d="M289.855 321.36H186.554V323.95H289.855V321.36Z" fill="#E6E6E6"/>
<path d="M273.696 330.694H238.123C237.624 330.694 237.22 330.287 237.22 329.784C237.22 329.281 237.624 328.875 238.123 328.875H273.696C274.195 328.875 274.599 329.281 274.599 329.784C274.599 330.285 274.195 330.694 273.696 330.694Z" fill="#E6E6E6"/>
<path d="M273.696 334.812H238.123C237.624 334.812 237.22 334.405 237.22 333.9C237.22 333.398 237.624 332.991 238.123 332.991H273.696C274.195 332.991 274.599 333.398 274.599 333.9C274.599 334.403 274.195 334.812 273.696 334.812Z" fill="#E6E6E6"/>
<path d="M270.16 341.093H240.268C238.218 341.093 236.556 342.768 236.556 344.833V349.573C236.556 351.639 238.218 353.314 240.268 353.314H270.16C272.21 353.314 273.872 351.639 273.872 349.573V344.833C273.872 342.766 272.21 341.093 270.16 341.093Z" fill="#73C99D"/>
</g>
</svg>
